<?xml version="1.0" encoding="utf-8"?>
<!-- Generator: Adobe Illustrator 24.1.0, SVG Export Plug-In . SVG Version: 6.00 Build 0)  -->
<svg version="1.1" id="illustration" xmlns="http://www.w3.org/2000/svg" xmlns:xlink="http://www.w3.org/1999/xlink" x="0px"
	 y="0px" viewBox="0 0 1200 1200" style="enable-background:new 0 0 1200 1200;" xml:space="preserve">
<style type="text/css">
	.st0{fill:#455A64;}
	.st1{fill:#B0BEC5;}
	.st2{fill:#90A4AE;}
	.st3{fill:#78909C;}
	.st4{fill:url(#SVGID_1_);}
	.st5{fill:#FFFFFF;}
	.st6{fill:#CCCBCB;}
	.st7{fill:#3498DB;}
	.st8{fill:#5D5D5D;}
	.st9{fill:#005E89;}
	.st10{fill:#E74C3C;}
	.st11{fill:#1ABC9C;}
	.st12{fill:#FCB038;}
	.st13{fill:url(#SVGID_2_);}
	.st14{fill:url(#SVGID_3_);}
	.st15{fill:url(#SVGID_4_);}
	.st16{fill:url(#SVGID_5_);}
	.st17{fill:url(#SVGID_6_);}
	.st18{fill:url(#SVGID_7_);}
	.st19{fill:url(#SVGID_8_);}
	.st20{fill:url(#SVGID_9_);}
	.st21{fill:url(#SVGID_10_);}
	.st22{fill:url(#SVGID_11_);}
	.st23{fill:url(#SVGID_12_);}
	.st24{fill:url(#SVGID_13_);}
	.st25{fill:url(#SVGID_14_);}
	.st26{opacity:0.2;fill:#FFFFFF;}
</style>
<g>
	<path class="st0" d="M751.33,322.85H497.46c-2.33,0-4.24,1.99-4.24,4.42v163.34c0,2.43,1.91,4.42,4.24,4.42h253.87
		c2.33,0,4.24-1.99,4.24-4.42V327.27C755.57,324.84,753.66,322.85,751.33,322.85z"/>
	<path class="st1" d="M475.18,495.03c0,0.01,0,0.02,0,0.02c0,9.18,7.38,16.69,16.4,16.69h265.63c9.02,0,16.4-7.51,16.4-16.69
		c0-0.01,0-0.02,0-0.02H475.18z"/>
	<path class="st2" d="M491.58,511.74h265.63c5.23,0,9.9-2.54,12.91-6.46H478.67C481.67,509.2,486.34,511.74,491.58,511.74z"/>
	<path class="st3" d="M600.92,495.03h-0.76l0.62,1.61l0.72,1.89c0.14,0.37,0.6,0.67,1.01,0.67h43.75c0.42,0,0.87-0.3,1.01-0.67
		l0.72-1.89l0.62-1.61h-0.76H600.92z"/>
	<g>
		<linearGradient id="SVGID_1_" gradientUnits="userSpaceOnUse" x1="624.3928" y1="486.5824" x2="624.3928" y2="331.2925">
			<stop  offset="0" style="stop-color:#EDDFD0"/>
			<stop  offset="1" style="stop-color:#EDE4DA"/>
		</linearGradient>
		<rect x="501.28" y="331.29" class="st4" width="246.23" height="155.29"/>
		<rect x="501.28" y="331.29" class="st5" width="246.23" height="11.09"/>
		<rect x="508.99" y="373.4" class="st6" width="46.71" height="113.18"/>
		<path class="st7" d="M555.69,373.47v-13.77c0-0.71-0.4-1.3-0.89-1.3h-44.93c-0.49,0-0.89,0.58-0.89,1.3v13.77H555.69z"/>
		<g>
			<path class="st8" d="M700.56,387.55c0,0.8-0.63,1.45-1.39,1.45h-4.9c-0.77,0-1.4-0.65-1.4-1.45v-11.58c0-0.8,0.63-1.45,1.4-1.45
				h4.9c0.77,0,1.39,0.65,1.39,1.45V387.55z"/>
			<path class="st9" d="M712.28,387.55c0,0.8-0.63,1.45-1.39,1.45h-4.9c-0.77,0-1.39-0.65-1.39-1.45v-16.6
				c0-0.8,0.63-1.46,1.39-1.46h4.9c0.76,0,1.39,0.65,1.39,1.46V387.55z"/>
			<path class="st10" d="M724,387.55c0,0.8-0.63,1.45-1.39,1.45h-4.9c-0.77,0-1.4-0.65-1.4-1.45v-25.65c0-0.8,0.63-1.45,1.4-1.45
				h4.9c0.77,0,1.39,0.65,1.39,1.45V387.55z"/>
		</g>
		<g>
			<path class="st7" d="M656.76,387.55c0,0.8-0.63,1.45-1.39,1.45h-4.9c-0.77,0-1.39-0.65-1.39-1.45v-25.65
				c0-0.8,0.63-1.45,1.39-1.45h4.9c0.77,0,1.39,0.65,1.39,1.45V387.55z"/>
			<path class="st10" d="M668.48,387.55c0,0.8-0.63,1.45-1.39,1.45h-4.9c-0.77,0-1.4-0.65-1.4-1.45v-12.58c0-0.8,0.63-1.45,1.4-1.45
				h4.9c0.76,0,1.39,0.65,1.39,1.45V387.55z"/>
			<path class="st11" d="M680.2,387.55c0,0.8-0.63,1.45-1.39,1.45h-4.9c-0.77,0-1.4-0.65-1.4-1.45v-22.14c0-0.8,0.63-1.46,1.4-1.46
				h4.9c0.77,0,1.39,0.65,1.39,1.46V387.55z"/>
		</g>
		<path class="st12" d="M581.49,359.27c-7.88,0-14.26,6.66-14.26,14.87c0,8.21,6.39,14.87,14.26,14.87
			c7.88,0,14.26-6.66,14.26-14.87C595.76,365.93,589.37,359.27,581.49,359.27z M581.49,385.3c-5.92,0-10.71-5-10.71-11.16
			c0-6.17,4.79-11.17,10.71-11.17c5.92,0,10.71,5,10.71,11.17C592.21,380.3,587.41,385.3,581.49,385.3z"/>
		<g>
			<path class="st12" d="M621.41,360.36c-7.59,0-13.74,6.41-13.74,14.32c0,7.91,6.15,14.32,13.74,14.32
				c7.59,0,13.74-6.41,13.74-14.32C635.15,366.77,629,360.36,621.41,360.36z M621.41,385.43c-5.7,0-10.32-4.82-10.32-10.75
				c0-5.94,4.62-10.75,10.32-10.75c5.7,0,10.32,4.81,10.32,10.75C631.73,380.62,627.11,385.43,621.41,385.43z"/>
			<path class="st8" d="M621.41,385.43c-5.7,0-10.32-4.82-10.32-10.75c0-5.89,4.54-10.67,10.17-10.75v-3.57
				c-7.52,0.08-13.59,6.46-13.59,14.32c0,7.91,6.15,14.32,13.74,14.32c7.59,0,13.74-6.41,13.74-14.32h-3.42
				C631.73,380.62,627.11,385.43,621.41,385.43z"/>
		</g>
		<linearGradient id="SVGID_2_" gradientUnits="userSpaceOnUse" x1="607.1099" y1="453.8344" x2="607.1099" y2="404.8122">
			<stop  offset="0" style="stop-color:#F5F2EE"/>
			<stop  offset="1" style="stop-color:#F7F3EE"/>
		</linearGradient>
		<path class="st13" d="M643.47,451.53c0,1.27-1,2.31-2.21,2.31h-68.29c-1.22,0-2.21-1.04-2.21-2.31v-44.41c0-1.27,1-2.31,2.21-2.31
			h68.29c1.22,0,2.21,1.04,2.21,2.31V451.53z"/>
		<linearGradient id="SVGID_3_" gradientUnits="userSpaceOnUse" x1="687.6392" y1="453.8344" x2="687.6392" y2="404.8122">
			<stop  offset="0" style="stop-color:#F5F2EE"/>
			<stop  offset="1" style="stop-color:#F7F3EE"/>
		</linearGradient>
		<path class="st14" d="M724,451.53c0,1.27-1,2.31-2.21,2.31H653.5c-1.22,0-2.21-1.04-2.21-2.31v-44.41c0-1.27,1-2.31,2.21-2.31
			h68.29c1.22,0,2.21,1.04,2.21,2.31V451.53z"/>
		<path class="st11" d="M643.08,452.82c-1.19-3.92-2.5-7.79-3.48-11.77c-0.93-3.74-2.64-9.78-7.03-10.04
			c-4.56-0.27-7.37,4.39-9.83,7.61c-2.1,2.74-4.05,7.56-8.11,7.02c-5.81-0.78-6.97-9.45-14.16-4.8c-1.94,1.25-3.29,3.48-5.93,3.18
			c-5.86-0.66-5.85-9.67-11.09-10.59c-6.57-1.15-10.19,12.12-12.59,18.79c0.28,0.93,1.11,1.62,2.1,1.62h68.29
			C642.01,453.83,642.68,453.43,643.08,452.82z"/>
		<path class="st7" d="M637.08,439.07c-2.45,2.02-5.33,9.86-9.14,8.34c-4.91-1.95-4.63-9.33-8.11-12.67
			c-5.07-4.86-9.06,0.25-12.33,4.26c-8.1,9.92-24.27,11.34-36.14,14.1c0.4,0.45,0.97,0.73,1.6,0.73h68.29
			c1.22,0,2.21-1.04,2.21-2.31v-11.84C641.94,437.7,639.78,436.86,637.08,439.07z"/>
		<path class="st8" d="M642.91,453.04c-4.36-5.32-9.12-11.9-14.91-11.74c-5.49,0.15-9.17,10.38-14.96,7.49
			c-0.06-0.03-0.12-0.06-0.18-0.09c-5.49-2.99-6.11-16.71-14.56-13.06c-4.15,1.8-7.48,10.81-13.01,7.88
			c-1.56-0.83-2.39-2.67-4.06-3.25c-5.46-1.89-8.4,6.29-10.48,10.84v0.41c0,1.27,1,2.31,2.21,2.31h68.29
			C641.91,453.83,642.5,453.52,642.91,453.04z"/>
		<path class="st10" d="M659.46,446.52c-0.23,0-0.45-0.09-0.63-0.27c-0.35-0.36-0.35-0.94,0-1.3l12.87-13.41
			c0.2-0.21,0.48-0.3,0.76-0.26c0.28,0.04,0.52,0.22,0.65,0.48l4.91,9.57l8.84-17.81c0.15-0.3,0.45-0.5,0.78-0.5
			c0.34,0,0.63,0.18,0.79,0.48l5.91,11.38l6.85-10.02c0.14-0.21,0.36-0.35,0.61-0.38c0.24-0.03,0.49,0.04,0.68,0.2l5.87,5.08
			l8.73-9.21c0.34-0.36,0.9-0.37,1.25-0.01c0.35,0.36,0.35,0.94,0.01,1.31l-9.3,9.81c-0.32,0.34-0.84,0.37-1.2,0.06l-5.76-4.98
			l-7.12,10.42c-0.18,0.26-0.47,0.4-0.77,0.39c-0.31-0.02-0.58-0.2-0.72-0.48l-5.79-11.14l-8.84,17.82c-0.15,0.3-0.45,0.5-0.78,0.5
			c-0.33-0.01-0.63-0.19-0.79-0.49l-5.14-10.02l-12.03,12.53C659.91,446.43,659.68,446.52,659.46,446.52z"/>
		<path class="st10" d="M661.39,445.6c0,1.11-0.86,2.01-1.93,2.01c-1.06,0-1.93-0.9-1.93-2.01c0-1.11,0.86-2.01,1.93-2.01
			C660.52,443.59,661.39,444.49,661.39,445.6z"/>
		<path class="st10" d="M674.06,432.38c0,1.11-0.86,2.01-1.93,2.01c-1.06,0-1.93-0.9-1.93-2.01c0-1.11,0.86-2.01,1.93-2.01
			C673.2,430.37,674.06,431.27,674.06,432.38z"/>
		<path class="st10" d="M679.96,442.42c0,1.11-0.86,2.01-1.93,2.01c-1.06,0-1.93-0.9-1.93-2.01c0-1.11,0.86-2.01,1.93-2.01
			C679.1,440.41,679.96,441.31,679.96,442.42z"/>
		<path class="st10" d="M689.57,424.31c0,1.11-0.86,2.01-1.93,2.01c-1.07,0-1.93-0.9-1.93-2.01c0-1.11,0.86-2.01,1.93-2.01
			C688.7,422.3,689.57,423.2,689.57,424.31z"/>
		<path class="st10" d="M696.19,435.95c0,1.11-0.86,2.01-1.93,2.01c-1.06,0-1.93-0.9-1.93-2.01c0-1.11,0.86-2.01,1.93-2.01
			C695.33,433.94,696.19,434.84,696.19,435.95z"/>
		<path class="st10" d="M703.71,425.8c0,1.11-0.86,2.01-1.93,2.01c-1.06,0-1.93-0.9-1.93-2.01c0-1.11,0.86-2.01,1.93-2.01
			C702.85,423.79,703.71,424.69,703.71,425.8z"/>
		<path class="st10" d="M710.32,430.37c0,1.11-0.86,2.01-1.93,2.01c-1.06,0-1.93-0.9-1.93-2.01c0-1.11,0.86-2.01,1.93-2.01
			C709.45,428.36,710.32,429.26,710.32,430.37z"/>
		<path class="st10" d="M719.61,421.19c0,1.11-0.86,2.01-1.93,2.01c-1.06,0-1.93-0.9-1.93-2.01c0-1.11,0.86-2.01,1.93-2.01
			C718.75,419.18,719.61,420.08,719.61,421.19z"/>
		<linearGradient id="SVGID_4_" gradientUnits="userSpaceOnUse" x1="571.3638" y1="476.2074" x2="642.9084" y2="476.2074">
			<stop  offset="0" style="stop-color:#F5F2EE"/>
			<stop  offset="1" style="stop-color:#F7F3EE"/>
		</linearGradient>
		<path class="st15" d="M642.91,486.58v-18.44c0-1.27-1-2.31-2.21-2.31h-67.12c-1.22,0-2.21,1.04-2.21,2.31v18.44H642.91z"/>
		<linearGradient id="SVGID_5_" gradientUnits="userSpaceOnUse" x1="651.8669" y1="476.2074" x2="723.4115" y2="476.2074">
			<stop  offset="0" style="stop-color:#F5F2EE"/>
			<stop  offset="1" style="stop-color:#F7F3EE"/>
		</linearGradient>
		<path class="st16" d="M723.41,486.58v-18.44c0-1.27-1-2.31-2.21-2.31h-67.12c-1.22,0-2.21,1.04-2.21,2.31v18.44H723.41z"/>
		<path class="st12" d="M592.21,486.58c0.78-1.31,1.24-2.84,1.24-4.49c0-4.7-3.65-8.5-8.16-8.5c-4.51,0-8.16,3.81-8.16,8.5
			c0,1.65,0.46,3.19,1.24,4.49H592.21z"/>
		<path class="st10" d="M613.53,486.58c0.78-1.31,1.24-2.84,1.24-4.49c0-4.7-3.65-8.5-8.16-8.5s-8.16,3.81-8.16,8.5
			c0,1.65,0.46,3.19,1.24,4.49H613.53z"/>
		<path class="st7" d="M634.84,486.58c0.78-1.31,1.24-2.84,1.24-4.49c0-4.7-3.65-8.5-8.16-8.5c-4.51,0-8.16,3.81-8.16,8.5
			c0,1.65,0.46,3.19,1.24,4.49H634.84z"/>
		<path class="st11" d="M673.24,486.58c0.78-1.31,1.24-2.84,1.24-4.49c0-4.7-3.65-8.5-8.16-8.5c-4.51,0-8.16,3.81-8.16,8.5
			c0,1.65,0.46,3.19,1.24,4.49H673.24z"/>
		<path class="st8" d="M694.56,486.58c0.78-1.31,1.24-2.84,1.24-4.49c0-4.7-3.65-8.5-8.16-8.5c-4.51,0-8.16,3.81-8.16,8.5
			c0,1.65,0.46,3.19,1.24,4.49H694.56z"/>
		<path class="st9" d="M715.87,486.58c0.78-1.31,1.24-2.84,1.24-4.49c0-4.7-3.65-8.5-8.16-8.5c-4.51,0-8.16,3.81-8.16,8.5
			c0,1.65,0.46,3.19,1.24,4.49H715.87z"/>
		<linearGradient id="SVGID_6_" gradientUnits="userSpaceOnUse" x1="508.9894" y1="398.336" x2="555.6945" y2="398.336">
			<stop  offset="0" style="stop-color:#ACADAC"/>
			<stop  offset="1" style="stop-color:#AAABA9"/>
		</linearGradient>
		<rect x="508.99" y="391.86" class="st17" width="46.71" height="12.95"/>
		<g>
			<linearGradient id="SVGID_7_" gradientUnits="userSpaceOnUse" x1="508.9894" y1="374.7747" x2="555.6945" y2="374.7747">
				<stop  offset="0" style="stop-color:#EDDFD0"/>
				<stop  offset="1" style="stop-color:#EDE4DA"/>
			</linearGradient>
			<rect x="508.99" y="373.4" class="st18" width="46.71" height="2.75"/>
			<linearGradient id="SVGID_8_" gradientUnits="userSpaceOnUse" x1="508.9894" y1="390.5238" x2="555.6945" y2="390.5238">
				<stop  offset="0" style="stop-color:#EDDFD0"/>
				<stop  offset="1" style="stop-color:#EDE4DA"/>
			</linearGradient>
			<rect x="508.99" y="389.15" class="st19" width="46.71" height="2.75"/>
			<linearGradient id="SVGID_9_" gradientUnits="userSpaceOnUse" x1="508.9894" y1="406.2735" x2="555.6945" y2="406.2735">
				<stop  offset="0" style="stop-color:#EDDFD0"/>
				<stop  offset="1" style="stop-color:#EDE4DA"/>
			</linearGradient>
			<rect x="508.99" y="404.9" class="st20" width="46.71" height="2.75"/>
			<linearGradient id="SVGID_10_" gradientUnits="userSpaceOnUse" x1="508.9894" y1="422.0228" x2="555.6945" y2="422.0228">
				<stop  offset="0" style="stop-color:#EDDFD0"/>
				<stop  offset="1" style="stop-color:#EDE4DA"/>
			</linearGradient>
			<rect x="508.99" y="420.65" class="st21" width="46.71" height="2.75"/>
			<linearGradient id="SVGID_11_" gradientUnits="userSpaceOnUse" x1="508.9894" y1="437.7724" x2="555.6945" y2="437.7724">
				<stop  offset="0" style="stop-color:#EDDFD0"/>
				<stop  offset="1" style="stop-color:#EDE4DA"/>
			</linearGradient>
			<rect x="508.99" y="436.4" class="st22" width="46.71" height="2.75"/>
			<linearGradient id="SVGID_12_" gradientUnits="userSpaceOnUse" x1="508.9894" y1="453.5218" x2="555.6945" y2="453.5218">
				<stop  offset="0" style="stop-color:#EDDFD0"/>
				<stop  offset="1" style="stop-color:#EDE4DA"/>
			</linearGradient>
			<rect x="508.99" y="452.15" class="st23" width="46.71" height="2.75"/>
			<linearGradient id="SVGID_13_" gradientUnits="userSpaceOnUse" x1="508.9894" y1="469.2712" x2="555.6945" y2="469.2712">
				<stop  offset="0" style="stop-color:#EDDFD0"/>
				<stop  offset="1" style="stop-color:#EDE4DA"/>
			</linearGradient>
			<rect x="508.99" y="467.9" class="st24" width="46.71" height="2.75"/>
			<linearGradient id="SVGID_14_" gradientUnits="userSpaceOnUse" x1="508.9894" y1="485.0205" x2="555.6945" y2="485.0205">
				<stop  offset="0" style="stop-color:#EDDFD0"/>
				<stop  offset="1" style="stop-color:#EDE4DA"/>
			</linearGradient>
			<rect x="508.99" y="483.65" class="st25" width="46.71" height="2.75"/>
		</g>
		<polygon class="st26" points="501.28,486.58 501.28,331.29 747.51,331.29 		"/>
	</g>
</g>
</svg>
