<?xml version="1.0" encoding="utf-8"?>
<!-- Generator: Adobe Illustrator 24.1.0, SVG Export Plug-In . SVG Version: 6.00 Build 0)  -->
<svg version="1.1" id="Layer_1" xmlns="http://www.w3.org/2000/svg" xmlns:xlink="http://www.w3.org/1999/xlink" x="0px" y="0px"
	 viewBox="0 0 333.33 333.33" style="enable-background:new 0 0 333.33 333.33;" xml:space="preserve">
<style type="text/css">
	.st0{fill:#CCCBCA;}
	.st1{fill:#242D3C;}
	.st2{fill:#F15424;}
	.st3{fill:#FFFFFF;}
	.st4{fill:#3E4959;}
	.st5{fill:#E6E5E5;}
	.st6{clip-path:url(#SVGID_2_);}
	.st7{fill:#F2F2F2;}
</style>
<g>
	<g>
		<g>
			<rect x="278.55" y="146.49" class="st0" width="37.28" height="37.27"/>
			<g>
				<rect x="253.7" y="162.65" class="st1" width="4.97" height="4.97"/>
				<rect x="263.64" y="162.65" class="st1" width="4.97" height="4.97"/>
				<rect x="273.58" y="162.65" class="st1" width="4.97" height="4.97"/>
			</g>
		</g>
		<g>
			<rect x="17.4" y="146.49" class="st0" width="37.27" height="37.27"/>
			<g>
				<rect x="54.67" y="162.65" class="st1" width="4.97" height="4.97"/>
				<rect x="64.61" y="162.65" class="st1" width="4.97" height="4.97"/>
				<rect x="74.55" y="162.65" class="st1" width="4.97" height="4.97"/>
			</g>
		</g>
		<g>
			<rect x="147.97" y="44.95" class="st0" width="37.28" height="37.27"/>
			<g>
				<rect x="164.13" y="82.23" class="st1" width="4.97" height="4.97"/>
				<rect x="164.13" y="92.17" class="st1" width="4.97" height="4.97"/>
				<rect x="164.13" y="102.11" class="st1" width="4.97" height="4.97"/>
			</g>
		</g>
		<g>
			<g>
				<g>
					<rect x="228.77" y="82.23" class="st1" width="4.97" height="4.97"/>
					<rect x="228.77" y="92.17" class="st1" width="4.97" height="4.97"/>
					<rect x="228.77" y="102.11" class="st1" width="4.97" height="4.97"/>
				</g>
				<g>
					<rect x="248.65" y="82.23" class="st1" width="4.97" height="4.97"/>
					<rect x="238.71" y="82.23" class="st1" width="4.97" height="4.97"/>
					<rect x="228.77" y="82.23" class="st1" width="4.97" height="4.97"/>
				</g>
			</g>
			<path class="st2" d="M290.73,84.71c0,10.29-8.34,18.64-18.63,18.64c-10.29,0-18.64-8.34-18.64-18.64
				c0-10.29,8.34-18.64,18.64-18.64C282.38,66.08,290.73,74.42,290.73,84.71z"/>
		</g>
		<g>
			<g>
				<g>
					<rect x="99.48" y="82.23" class="st1" width="4.97" height="4.97"/>
					<rect x="99.48" y="92.17" class="st1" width="4.97" height="4.97"/>
					<rect x="99.48" y="102.11" class="st1" width="4.97" height="4.97"/>
				</g>
				<g>
					<rect x="79.6" y="82.23" class="st1" width="4.97" height="4.97"/>
					<rect x="89.54" y="82.23" class="st1" width="4.97" height="4.97"/>
					<rect x="99.48" y="82.23" class="st1" width="4.97" height="4.97"/>
				</g>
			</g>
			<path class="st2" d="M42.49,84.71c0,10.29,8.34,18.64,18.64,18.64c10.29,0,18.64-8.34,18.64-18.64
				c0-10.29-8.34-18.64-18.64-18.64C50.84,66.08,42.49,74.42,42.49,84.71z"/>
		</g>
	</g>
	<g>
		<g>
			<path class="st1" d="M79.52,223.19V112.88c0-1.48,0.57-2.96,1.71-4.1c1.12-1.13,2.62-1.71,4.1-1.71h162.56
				c1.48,0,2.96,0.57,4.11,1.71c1.12,1.13,1.7,2.62,1.7,4.1v110.31H79.52z"/>
			<rect x="89.2" y="116.75" class="st3" width="154.81" height="96.76"/>
			<g>
				<path class="st4" d="M169.04,111.92c0,1.34-1.11,2.42-2.43,2.42c-1.34,0-2.42-1.08-2.42-2.42c0-1.34,1.08-2.42,2.42-2.42
					C167.93,109.51,169.04,110.58,169.04,111.92z"/>
				<path class="st3" d="M167.59,111.92c0,0.53-0.43,0.96-0.98,0.96c-0.53,0-0.96-0.43-0.96-0.96c0-0.53,0.43-0.96,0.96-0.96
					C167.15,110.96,167.59,111.39,167.59,111.92z"/>
			</g>
		</g>
		<g>
			<rect x="60.17" y="223.19" class="st5" width="212.87" height="3.88"/>
			<path class="st0" d="M273.05,227.07c0,1.73-0.66,3.46-2,4.79c-1.31,1.32-3.04,1.98-4.79,1.98H66.94c-1.74,0-3.46-0.66-4.79-1.98
				c-1.33-1.33-1.98-3.06-1.98-4.79l0,0H273.05L273.05,227.07z"/>
			<rect x="147.26" y="223.19" class="st0" width="38.7" height="1.94"/>
		</g>
	</g>
	<g>
		<g>
			<polygon class="st1" points="220.27,195 213.59,178.44 230.15,185.12 223.7,188.55 			"/>
			
				<rect x="224.49" y="186.76" transform="matrix(0.7065 -0.7077 0.7077 0.7065 -68.6566 215.7646)" class="st1" width="2.64" height="7.8"/>
		</g>
		<g>
			<rect x="206.96" y="124.7" class="st1" width="14.91" height="2.89"/>
			<rect x="206.96" y="130.47" class="st1" width="29.82" height="2.88"/>
			<rect x="206.96" y="136.23" class="st1" width="29.82" height="2.88"/>
			<rect x="206.96" y="142" class="st1" width="29.82" height="2.88"/>
		</g>
		<g>
			<g>
				<defs>
					<path id="SVGID_1_" d="M199.74,157.84c0,18.3-14.83,33.14-33.13,33.14c-18.3,0-33.14-14.84-33.14-33.14
						c0-18.3,14.84-33.13,33.14-33.13C184.92,124.7,199.74,139.54,199.74,157.84z"/>
				</defs>
				<use xlink:href="#SVGID_1_"  style="overflow:visible;fill:#16C6CC;"/>
				<clipPath id="SVGID_2_">
					<use xlink:href="#SVGID_1_"  style="overflow:visible;"/>
				</clipPath>
				<g class="st6">
					<polygon class="st1" points="176.75,146.34 156.47,146.34 155.09,175.82 178.14,175.82 					"/>
					<path class="st7" d="M143.7,182.16l-0.04,0.15l-1.39,4.4h-0.01l-1.82,5.74h52.31l-1.82-5.74l-1.99-6.3
						c-0.32-1.02-0.85-1.97-1.62-2.8c-0.77-0.84-1.68-1.44-2.66-1.84l-10.48-4.15c-0.53-0.21-0.99-0.59-1.35-1.09
						c-0.35-0.52-0.5-1.08-0.5-1.65v-5.1h-11.46v5.1c0,0.57-0.17,1.13-0.51,1.65c-0.34,0.5-0.81,0.87-1.34,1.09l-10.48,4.15
						c-0.98,0.4-1.89,1-2.66,1.84c-0.78,0.83-1.31,1.78-1.63,2.8L143.7,182.16L143.7,182.16z"/>
					<path class="st7" d="M166.62,137.84c-6.27,0-10.73,4.57-10.73,14.25c0,8.19,4.8,15.09,10.73,15.09
						c5.92,0,10.73-6.9,10.73-15.09C177.35,142.41,172.88,137.84,166.62,137.84z"/>
					<path class="st1" d="M176.24,138.36h-9.62h-9.64c0,0-1.36,9.61,0.38,11.58c0.07-0.8,0.78-1.02,2.05-1.02
						c0,0,1.07-1.19,1.85-4.5c0.58,2.24,0.31,4.59,0.31,4.59c1.37,0.09,3.05,0.24,5.04,0.25c0.5,0,0.99-0.01,1.44-0.02
						c0,0,0.59-0.35,0.84-1.22c0.37,0.47,0.42,1.16,0.42,1.16c4.11-0.22,6.41-0.7,6.54,0.77
						C177.62,147.97,176.24,138.36,176.24,138.36z"/>
					<path class="st1" d="M159.04,171.62c0.52-0.21,1-0.59,1.34-1.09c0.35-0.52,0.51-1.08,0.51-1.65v-2.18h-3.23
						c-0.42-3.04-0.65-6.04-0.65-8.88c0-8.41,0.58-11.55,2.9-14.39c3-3.65,6.71-4.41,6.71-4.41s3.7,0.76,6.7,4.41
						c2.33,2.84,2.9,5.98,2.9,14.39c0,2.84-0.23,5.84-0.65,8.88h-3.21v2.18c0,0.57,0.16,1.13,0.5,1.65c0.35,0.5,0.82,0.87,1.35,1.09
						l6,2.38c0.74-0.92,1.12-2.03,1.12-3.15v-4.15c0-6.96-0.21-16.04-1.68-22.67c-1.29-5.68-6.15-11.18-13.01-9.69
						c-6.87-1.49-11.73,4-13.02,9.69c-1.48,6.63-1.69,15.71-1.69,22.67v4.15c0,1.12,0.38,2.23,1.14,3.15L159.04,171.62z"/>
					<path class="st1" d="M149.54,192.45h34.14c-1.59-3.49-2.58-8.18-2.58-13.39c0-1.58,0.1-3.11,0.28-4.59h-0.01l-2.8-1.11
						l-1.21,4.85c-0.57,2.31-1.89,4.49-3.92,6.06c-2.03,1.59-4.28,2.26-6.82,2.26c-2.55,0-4.8-0.68-6.83-2.26
						c-2.02-1.58-3.35-3.75-3.91-6.06l-1.21-4.85l-2.8,1.11h-0.03c0.17,1.48,0.27,3.01,0.27,4.59
						C152.12,184.26,151.13,188.96,149.54,192.45z"/>
				</g>
			</g>
		</g>
		<g>
			<rect x="139.69" y="198.93" class="st1" width="22.43" height="6.63"/>
			<rect x="171.1" y="198.93" class="st2" width="22.43" height="6.63"/>
		</g>
		<g>
			<g>
				<rect x="96.43" y="159.26" class="st1" width="29.82" height="2.88"/>
				<rect x="96.43" y="153.5" class="st1" width="29.82" height="2.88"/>
				<rect x="96.43" y="147.75" class="st1" width="29.82" height="2.88"/>
				<rect x="96.43" y="165.03" class="st1" width="29.82" height="2.88"/>
				<rect x="96.43" y="170.79" class="st1" width="29.82" height="2.88"/>
				<rect x="96.43" y="176.54" class="st1" width="14.91" height="2.88"/>
			</g>
			<rect x="96.43" y="124.7" class="st2" width="29.82" height="14.41"/>
		</g>
	</g>
</g>
</svg>
