<svg xmlns="http://www.w3.org/2000/svg" xmlns:xlink="http://www.w3.org/1999/xlink" viewBox="0 0 780 241"><defs><style>.cls-1{fill:#71a5c5;}.cls-2{fill:url(#linear-gradient);}.cls-3{fill:url(#linear-gradient-2);}.cls-4{fill:url(#linear-gradient-3);}.cls-5{fill:#c3d1ce;}.cls-6{fill:#f3f1f6;}.cls-7{fill:#f5f5f5;}.cls-8{fill:#f8f8f8;}.cls-9{fill:#47dee5;}.cls-10{fill:#b2b2b2;}.cls-11{fill:#e56b46;}.cls-12{fill:#b0bdba;}.cls-13{fill:url(#linear-gradient-4);}.cls-14{fill:#383839;}.cls-15{fill:#141414;}.cls-16{fill:#f5f8fa;}.cls-17{fill:#fdb127;}.cls-18,.cls-76,.cls-98{opacity:0.2;}.cls-18,.cls-65,.cls-76,.cls-98{isolation:isolate;}.cls-19{fill:#976266;}.cls-20{fill:#2a445e;}.cls-21{fill:#253d51;}.cls-22{fill:#ccc;}.cls-23{fill:#2b2b2b;}.cls-24{fill:#50667e;}.cls-25{fill:#523537;}.cls-26{fill:#f9e6b2;}.cls-27{fill:#4f4744;}.cls-28{fill:#e1bd51;}.cls-29{fill:#dea62f;}.cls-30{fill:#de7476;}.cls-31{fill:#383838;}.cls-32{fill:#212121;}.cls-33{fill:#111;}.cls-34{fill:#5b5b5b;}.cls-35{fill:#cd0f4b;}.cls-36{fill:#996367;}.cls-37{fill:#ededed;}.cls-38{fill:#ff3c64;}.cls-39{fill:#ff7b89;}.cls-40{fill:#99143a;}.cls-41{fill:#ce204a;}.cls-42{fill:#e5e5e5;}.cls-43{fill:#07abd1;}.cls-44{fill:#83d3f7;}.cls-45{fill:#084684;}.cls-46{fill:#0c7bbf;}.cls-47{fill:#f0eff4;}.cls-48{fill:#65c769;}.cls-49{fill:#a5dea4;}.cls-50{fill:#087032;}.cls-51{fill:#109961;}.cls-52{fill:#ffd84d;}.cls-53{fill:#fff88c;}.cls-54{fill:#b23f1b;}.cls-55{fill:#e55c26;}.cls-56{fill:#da7290;}.cls-57{fill:#f2aac1;}.cls-58{fill:#aa1149;}.cls-59{fill:#c12d62;}.cls-60{fill:#7a7a7a;}.cls-61{fill:url(#linear-gradient-5);}.cls-62{fill:url(#linear-gradient-6);}.cls-63{fill:#2d2d2d;}.cls-64{fill:#f4bd37;}.cls-65{fill:#c7eff9;opacity:0.5;}.cls-66{fill:#d2ddde;}.cls-67{fill:#b7c0c1;}.cls-68{fill:#33363b;}.cls-69{fill:#f1f2ed;}.cls-70{fill:#586273;}.cls-71,.cls-98{fill:#fff;}.cls-72{fill:#e4e7e9;}.cls-73{fill:#f0af89;}.cls-74{fill:#fbd5be;}.cls-75{fill:#a13a37;}.cls-76{fill:#1a1a1a;}.cls-77{fill:#f0b897;}.cls-78{fill:#fde3d4;}.cls-79{fill:#353239;}.cls-80{fill:#3caed6;}.cls-81{fill:url(#linear-gradient-7);}.cls-82{fill:#dde2e7;}.cls-83{fill:#c1303f;}.cls-84{fill:#ba202a;}.cls-85{fill:#e4eee6;}.cls-86{fill:#7e5037;}.cls-87{fill:#603729;}.cls-88{fill:#dedbdc;}.cls-89{fill:url(#linear-gradient-8);}.cls-90{fill:#6d6e71;}.cls-91{fill:#bcbec0;}.cls-92{fill:#e2673d;}.cls-93{fill:#6a889b;}.cls-94{fill:#799bb4;}.cls-95{fill:#f9f4e9;}.cls-96{fill:#373739;}.cls-97{fill:#46474d;}.cls-99{fill:none;}</style><linearGradient id="linear-gradient" x1="508.47" y1="1335.54" x2="577.01" y2="1267" gradientTransform="translate(58.5 -1133)" gradientUnits="userSpaceOnUse"><stop offset="0.5" stop-color="#231f20" stop-opacity="0"/><stop offset="1" stop-color="#231f20" stop-opacity="0.1"/></linearGradient><linearGradient id="linear-gradient-2" x1="477.43" y1="1304.41" x2="545.92" y2="1235.92" xlink:href="#linear-gradient"/><linearGradient id="linear-gradient-3" x1="517.1" y1="1297.14" x2="567.34" y2="1246.89" xlink:href="#linear-gradient"/><linearGradient id="linear-gradient-4" x1="602.38" y1="1363.03" x2="654.39" y2="1311.02" xlink:href="#linear-gradient"/><linearGradient id="linear-gradient-5" x1="213.05" y1="1423.57" x2="361.33" y2="1270.74" xlink:href="#linear-gradient"/><linearGradient id="linear-gradient-6" x1="349.14" y1="1388.26" x2="447.68" y2="1280.69" xlink:href="#linear-gradient"/><linearGradient id="linear-gradient-7" x1="56.61" y1="1400.5" x2="185.61" y2="1266.5" xlink:href="#linear-gradient"/><linearGradient id="linear-gradient-8" x1="-81.32" y1="1380.52" x2="32.51" y2="1316.9" xlink:href="#linear-gradient"/></defs><g id="Layer_2" data-name="Layer 2"><g id="Layer_1-2" data-name="Layer 1"><g id="BG"><rect class="cls-1" width="780" height="241"/></g><g id="SMARTPHONE"><path class="cls-2" d="M632.21,137.26l-1.1,1.1A5,5,0,0,0,632.21,137.26Z"/><path class="cls-3" d="M638.15,66.63l-12.79,18,19.4-19.4A4.74,4.74,0,0,0,638.15,66.63Z"/><path class="cls-4" d="M631.11,138.36,528.47,241H469L625.36,84.65l-22.54,31.74a4.3,4.3,0,0,0,1.16,6.27l21.9,15.54A4.33,4.33,0,0,0,631.11,138.36Z"/><path class="cls-5" d="M667.12,80.31l-.6-.42.38-.54-4.81-3.41-.38.53L645.06,64.65A5.19,5.19,0,0,0,637.78,66L602.3,116a5.06,5.06,0,0,0,1.22,7.19l22.06,15.66a5.06,5.06,0,0,0,7.19-1.21l35.47-49.94A5.22,5.22,0,0,0,667.12,80.31Z"/><path class="cls-6" d="M612,128.32l-3.15,5.1a.91.91,0,0,0,.29,1.26l.82.52c-4.73,5.64-18.44,20.54-31.7,21.38a17,17,0,0,1-13.66-5.52c-8.67-8.86-5.09-19.3-.95-31.39,4.91-14.34,10.48-30.58-3.44-48.09-5.79-7.28-13.15-11.33-21.89-12-24-1.93-49.94,21.44-51,22.43l1,1.11c.27-.24,26.6-23.92,49.9-22,8.31.67,15.31,4.53,20.84,11.48,13.4,16.85,8,32.69,3.18,46.67-4.11,12-8,23.39,1.31,32.91a18.44,18.44,0,0,0,14.84,6,23.21,23.21,0,0,0,3.47-.5c12.9-2.88,25.1-16.35,29.41-21.57l1.09.69a.89.89,0,0,0,1.24-.29l3.15-5.1Z"/><path class="cls-7" d="M632.21,137.26a4.33,4.33,0,0,1-6.33,1L604,122.67a4.3,4.3,0,0,1-1.16-6.28l35.33-49.76a4.75,4.75,0,0,1,6.61-1.39l21.89,15.55a4.76,4.76,0,0,1,.89,6.71l-35.33,49.76Z"/><rect class="cls-8" x="608.24" y="86.22" width="53.38" height="32.11" transform="translate(183.91 560.73) rotate(-54.62)"/><rect class="cls-9" x="643.34" y="68.91" width="8.14" height="31.91" transform="translate(203.36 563.57) rotate(-54.62)"/><rect class="cls-10" x="615.66" y="100.56" width="18.54" height="31.91" transform="translate(168.03 558.5) rotate(-54.61)"/><polyline class="cls-11" points="630.54 81.06 656.58 99.55 644.83 116.09 618.79 97.6"/><circle class="cls-12" cx="653.85" cy="75.65" r="0.67"/><path class="cls-12" d="M645.88,74.07,658,82.64c.17.13.57-.14.69-.31s.24-.63.06-.76L646.64,73c-.18-.12-.57.14-.69.32S645.71,74,645.88,74.07Z"/></g><path class="cls-13" d="M760.27,216.69,736,241H563.87l123.2-123.2,0,94.71a4.2,4.2,0,0,0,4.2,4.2Z"/><path class="cls-14" d="M687.07,117.8h0l4.19-4.21A4.19,4.19,0,0,0,687.07,117.8Z"/><path class="cls-14" d="M764.47,212.49a4.2,4.2,0,0,1-4.2,4.2l-69,0a4.2,4.2,0,0,1-4.2-4.2l0-94.71a4.19,4.19,0,0,1,4.19-4.2h69a4.19,4.19,0,0,1,4.2,4.19l0,94.71Z"/><circle class="cls-15" cx="725.76" cy="118.17" r="1.16"/><rect class="cls-16" x="691.42" y="121.86" width="68.69" height="83.54"/><rect class="cls-11" x="693.6" y="135.53" width="64.17" height="28.75"/><rect class="cls-9" x="693.6" y="124.87" width="30.57" height="8.08"/><rect class="cls-10" x="693.61" y="166.87" width="30.86" height="18.42"/><rect class="cls-10" x="727.06" y="166.86" width="30.87" height="18.42"/><rect class="cls-10" x="727.06" y="187.87" width="11.91" height="2.33"/><rect class="cls-10" x="693.61" y="187.88" width="22.25" height="2.34"/><rect class="cls-10" x="727.07" y="191.93" width="30.86" height="2.34"/><rect class="cls-10" x="693.61" y="191.93" width="30.87" height="2.34"/><rect class="cls-10" x="727.07" y="195.99" width="22.25" height="2.33"/><rect class="cls-10" x="693.61" y="196" width="30.86" height="2.33"/><rect class="cls-10" x="727.07" y="200.05" width="30.86" height="2.34"/><rect class="cls-10" x="693.62" y="200.06" width="30.86" height="2.34"/><path class="cls-17" d="M158.88,111.57v1.77h68.53l-2.32-1.77L158.83,61.1Zm11.34-29.95,28.12,21.14H170.22Z"/><polygon class="cls-18" points="158.88 113.34 158.88 111.57 225.09 111.57 227.41 113.34 158.88 113.34"/><path class="cls-19" d="M181,113.25V111h.64v2.3Zm7,0v-2.3h-.65v2.31Zm-4.17,0v-2.31h-.65v2.31Zm2.08,0V109.9h-.65v3.37Zm4.28,0v-2.3h-.64v2.3Zm8.36,0V109.9h-.64v3.37Zm-2.09-.06v-2.3h-.64v2.3Zm-2.06,0v-2.3h-.64v2.3Zm-2.15,0v-3.37h-.65v3.37Zm-25.3,0V109.9h-.64v3.37Zm-8-45.32h2.3v.64h-2.3Zm0,7h2.3v-.64h-2.3Zm0-4.17h2.31v-.64h-2.31Zm-.05,2.08h3.37v-.65h-3.37Zm0,4.28h2.3v-.65h-2.31Zm0,8.36h3.37v-.64h-3.37Zm.06-2.08h2.3v-.64h-2.31Zm0-2.07h2.3v-.65h-2.31Zm0-2.15h3.37v-.65h-3.37Zm0-14.81h2.31v-.64h-2.3Zm0,2.14h3.37v-.64h-3.37Zm.07,40h2.3v-.65h-2.3Zm0,2.16h2.3v-.65h-2.31Zm0-16.88h3.37v-.65H158.9v.65Zm0,2.08h2.3v-.65h-2.3v.64Zm0-6.34h2.3v-.65h-2.3Zm0,2.11h2.3V89h-2.3Zm0,12.64h2.3v-.65h-2.31Zm0-2.07h2.3v-.64h-2.31v.65Zm0,4.21h3.38v-.64h-3.38Zm0-6.33h3.37v-.65l-3.38,0ZM158.85,96h2.3v-.64h-2.3ZM169,113.29V111h-.65v2.3Zm-6.34,0V111H162v2.3Zm2.11,0V111h-.64v2.31Zm-4.83,0h.64V110h-.64Zm17.47-.08V111h-.64v2.31Zm-2.07,0v-2.31h-.64v2.3Zm4.21,0v-3.38h-.64v3.37Zm-6.34,0V109.9h-.64v3.38Zm-2.14,0V111h-.64v2.31Zm48.51-.14v-2.3h-.65v2.3Zm2.17,0v-2.3h-.64v2.3Zm-16.89,0v-3.38h-.64v3.37Zm2.08,0v-2.3h-.64v2.3Zm-6.34,0V111h-.64v2.3Zm2.11,0v-2.3H202v2.3Zm12.64,0v-2.3h-.65v2.3Zm-2.07,0v-2.3h-.65v2.3Zm4.22,0V109.8h-.64v3.38Zm-6.34,0v-3.37h-.64v3.37Zm-2.14,0v-2.31h-.64v2.3Z"/><rect class="cls-20" x="147.27" y="73.77" width="3.39" height="38.82"/><path class="cls-21" d="M149.45,114.36a1.6,1.6,0,0,0,1.49-1.66V96.79H147l-.08,16a1.56,1.56,0,0,0,1.47,1.63Z"/><polygon class="cls-22" points="148.6 69.3 149.4 69.3 150.69 73.78 147.3 73.77 148.6 69.3"/><polygon class="cls-23" points="148.92 68.42 149.07 68.42 149.32 69.3 148.68 69.3 148.92 68.42"/><polygon class="cls-24" points="146.45 109.49 147.26 109.01 147.25 112.24 146.45 112.24 146.45 109.49"/><rect class="cls-20" x="146.05" y="98.07" width="0.4" height="14.5"/><rect class="cls-25" x="135.03" y="109.03" width="5" height="2.26" transform="translate(-0.25 0.32) rotate(-0.13)"/><polygon class="cls-26" points="139.97 78.02 134.99 78.04 136.47 74.53 137.34 72.5 138.31 74.53 139.97 78.02"/><polygon class="cls-27" points="138.31 74.53 136.47 74.53 137.34 72.5 138.31 74.53"/><rect class="cls-28" x="135" y="78.02" width="4.99" height="31.01" transform="translate(-0.2 0.29) rotate(-0.12)"/><rect class="cls-29" x="135.02" y="78.03" width="2.16" height="31.01" transform="translate(-0.19 0.27) rotate(-0.11)"/><path class="cls-30" d="M135,111.29l0,1.45a1.21,1.21,0,0,0,1.19,1.21h2.58a1.2,1.2,0,0,0,1.21-1.19l0-1.46Z"/><polygon class="cls-31" points="97.4 105.67 98.53 105.45 99.67 114.05 99.6 114.06 97.4 105.67"/><path class="cls-17" d="M97.39,105.81a.9.9,0,0,1-.28,0,.62.62,0,0,1-.29-.15,1.12,1.12,0,0,1-.35-.64L90,71.43a1.14,1.14,0,0,1,.09-.74.67.67,0,0,1,.21-.23.62.62,0,0,1,.27-.09l1.2-.23a.65.65,0,0,1,.28,0,.73.73,0,0,1,.29.15,1.12,1.12,0,0,1,.35.64l6.48,33.61a1.11,1.11,0,0,1-.09.73.63.63,0,0,1-.21.24.71.71,0,0,1-.28.09Z"/><rect class="cls-17" x="79.07" y="102.83" width="1.67" height="1.77" transform="translate(-36.74 163.16) rotate(-79.39)"/><path class="cls-17" d="M79.42,102.91a.73.73,0,0,1-.26-.09.5.5,0,0,1-.21-.22.93.93,0,0,1-.11-.68l5.83-31.08a1,1,0,0,1,.34-.6.77.77,0,0,1,.28-.12.54.54,0,0,1,.28,0l1.2.23a.72.72,0,0,1,.27.09.56.56,0,0,1,.21.22.92.92,0,0,1,.11.68l-5.83,31.08a.92.92,0,0,1-.35.59.57.57,0,0,1-.27.13.7.7,0,0,1-.29,0Z"/><path class="cls-31" d="M77.85,114.2s-.13-.14,0-.73l.36-1.91.47.09-.3,1.57a2.08,2.08,0,0,1-.45,1l0,0Z"/><path class="cls-17" d="M78.21,111.63c-.22,0-.45-1.25-.37-1.67l.75-4,1.74.33-.75,4c-.08.42-.73,1.47-1,1.43Z"/><path class="cls-31" d="M80.87,104.29l-.09-.1-.13-.07-.1,0-1.38-.26h-.1a.22.22,0,0,0-.14,0,.31.31,0,0,0-.13.06.44.44,0,0,0-.19.29l-.28,1.52a.45.45,0,0,0,.07.34l.09.1a.33.33,0,0,0,.13.07.18.18,0,0,0,.1,0l1.38.27h.1l.14,0a.31.31,0,0,0,.13-.06.47.47,0,0,0,.19-.29l.28-1.52A.49.49,0,0,0,80.87,104.29Z"/><polygon class="cls-31" points="90.24 62.15 90.24 62.15 87.17 62.15 87.17 62.15 87.17 50.19 87.17 50.19 90.24 50.19 90.24 50.19 90.24 62.15"/><rect class="cls-32" x="86.75" y="51.35" width="3.76" height="6.96"/><rect class="cls-32" x="86.82" y="51.35" width="3.76" height="6.91"/><rect class="cls-33" x="90.11" y="51.35" width="0.19" height="6.91"/><rect class="cls-34" x="89.11" y="51.35" width="0.19" height="6.91"/><rect class="cls-31" x="88.11" y="51.35" width="0.19" height="6.91"/><rect class="cls-31" x="87.11" y="51.35" width="0.19" height="6.91"/><path class="cls-35" d="M94.5,71.51a3.41,3.41,0,0,1-3.41,3.4H86.24a3.4,3.4,0,0,1-3.4-3.4L84,63.37a3.4,3.4,0,0,1,3.4-3.4H90a3.4,3.4,0,0,1,3.4,3.4Z"/><polygon class="cls-22" points="104.61 91.72 99.16 92.49 98.98 92.51 79.61 92.51 79.48 92.49 73.99 91.67 79.48 90.99 79.61 90.97 98.98 90.97 99.16 91 104.61 91.72"/><rect class="cls-31" x="88.72" y="84.48" width="1.16" height="14.52"/><polygon class="cls-31" points="79.48 90.99 79.48 92.49 73.99 91.67 79.48 90.99"/><polygon class="cls-31" points="104.61 91.72 99.16 92.49 99.16 91 104.61 91.72"/><path class="cls-17" d="M116.38,56l-.25,57.51,10.1,0L126.48,56Zm2.47,3.63a1.23,1.23,0,1,1,1.23-1.23A1.22,1.22,0,0,1,118.85,59.65Z"/><rect class="cls-18" x="96.81" y="83.96" width="57.4" height="1.71" transform="translate(40.06 209.9) rotate(-89.71)"/><rect class="cls-36" x="124.31" y="98.54" width="0.79" height="2.83" transform="translate(24.15 224.18) rotate(-89.72)"/><rect class="cls-36" x="124.35" y="93.35" width="0.79" height="2.83" transform="translate(29.38 219.05) rotate(-89.72)"/><rect class="cls-36" x="123.66" y="95.24" width="0.79" height="4.14" transform="translate(26.22 220.95) rotate(-89.76)"/><rect class="cls-36" x="124.4" y="90.8" width="0.79" height="2.83" transform="translate(32.07 216.63) rotate(-89.77)"/><rect class="cls-36" x="123.69" y="103.02" width="0.79" height="4.14" transform="translate(18.4 228.68) rotate(-89.73)"/><rect class="cls-36" x="123.72" y="87.5" width="0.79" height="4.14" transform="translate(34.02 213.31) rotate(-89.76)"/><rect class="cls-36" x="123.3" y="86.59" width="2.83" height="0.79"/><rect class="cls-36" x="123.72" y="79.73" width="0.79" height="4.14" transform="translate(41.73 205.53) rotate(-89.73)"/><rect class="cls-36" x="124.34" y="101.13" width="0.79" height="2.83" transform="translate(21.69 226.86) rotate(-89.77)"/><rect class="cls-36" x="124.29" y="106.34" width="0.79" height="2.83" transform="translate(16.42 232) rotate(-89.77)"/><rect class="cls-36" x="123.69" y="110.8" width="0.79" height="4.14" transform="translate(10.69 236.49) rotate(-89.76)"/><rect class="cls-36" x="124.33" y="108.92" width="0.79" height="2.83" transform="translate(13.84 234.56) rotate(-89.74)"/><rect class="cls-36" x="124.37" y="83.03" width="0.79" height="2.83" transform="translate(39.76 208.82) rotate(-89.74)"/><rect class="cls-36" x="123.83" y="64.17" width="0.79" height="4.14" transform="translate(57.41 190.16) rotate(-89.73)"/><rect class="cls-36" x="124.49" y="62.2" width="0.79" height="2.83" transform="translate(60.69 188.2) rotate(-89.73)"/><rect class="cls-36" x="124.48" y="59.66" width="0.79" height="2.83" transform="translate(63.21 185.65) rotate(-89.72)"/><rect class="cls-36" x="122.23" y="58.12" width="4.14" height="0.79"/><rect class="cls-36" x="124.4" y="77.83" width="0.79" height="2.83" transform="translate(44.9 203.62) rotate(-89.7)"/><rect class="cls-36" x="123.81" y="71.96" width="0.79" height="4.14" transform="translate(49.62 197.9) rotate(-89.74)"/><rect class="cls-36" x="124.47" y="67.37" width="0.79" height="2.83" transform="translate(55.48 193.31) rotate(-89.72)"/><rect class="cls-36" x="124.39" y="75.17" width="0.79" height="2.83" transform="translate(47.68 201.05) rotate(-89.77)"/><rect class="cls-36" x="123.4" y="71.07" width="2.83" height="0.79"/><path class="cls-37" d="M71.62,55.4l-15.8-5.3c-.41-.18-.77.07-1,.49l-20,59.89c-.18.42.08.77.49,1l15.8,5.3c.42.18.77-.08,1-.49l20-59.89A.8.8,0,0,0,71.62,55.4Z"/><rect class="cls-38" x="48.14" y="76.79" width="9.89" height="15.94" transform="translate(-44.11 108.33) rotate(-71.57)"/><rect class="cls-39" x="44.04" y="89.06" width="9.88" height="15.94" transform="translate(-58.56 112.81) rotate(-71.56)"/><rect class="cls-40" x="56.18" y="52.52" width="9.88" height="15.95" transform="translate(-15.6 99.34) rotate(-71.56)"/><rect class="cls-41" x="52.13" y="64.64" width="9.88" height="15.94" transform="translate(-29.88 103.76) rotate(-71.54)"/><path class="cls-42" d="M60.33,52.54,43.8,50.05a.74.74,0,0,0-.87.69l-9.28,62.41a.73.73,0,0,0,.68.87l16.53,2.49a.72.72,0,0,0,.87-.68L61,53.42A.77.77,0,0,0,60.33,52.54Z"/><rect class="cls-43" x="42.28" y="76.75" width="9.88" height="15.94" transform="matrix(0.15, -0.99, 0.99, 0.15, -43.51, 119.02)"/><rect class="cls-44" x="40.38" y="89.44" width="9.89" height="15.94" transform="translate(-57.68 127.93) rotate(-81.55)"/><rect class="cls-45" x="45.94" y="51.55" width="9.89" height="15.95" transform="translate(-15.47 101.12) rotate(-81.56)"/><rect class="cls-46" x="44.12" y="64.19" width="9.88" height="15.95" transform="translate(-29.52 110.1) rotate(-81.56)"/><path class="cls-47" d="M49.18,52.38l-16.64.4a.77.77,0,0,0-.7.85l1.73,63.09a.76.76,0,0,0,.85.69l16.64-.4a.76.76,0,0,0,.69-.85L50,53.07A.82.82,0,0,0,49.18,52.38Z"/><rect class="cls-48" x="33.84" y="81.37" width="15.94" height="9.88" transform="translate(-2.33 1.17) rotate(-1.56)"/><rect class="cls-49" x="34.18" y="94.25" width="15.94" height="9.88" transform="translate(-2.7 1.19) rotate(-1.57)"/><rect class="cls-50" x="33.12" y="55.83" width="15.94" height="9.88" transform="translate(-1.64 1.14) rotate(-1.56)"/><rect class="cls-51" x="33.58" y="68.61" width="15.94" height="9.88" transform="translate(-1.99 1.16) rotate(-1.56)"/><path class="cls-42" d="M38,53.69,21.77,57a.72.72,0,0,0-.56.9l12.57,61.9c0,.43.47.61.9.55L51,117.05a.73.73,0,0,0,.55-.91L39,54.25A.91.91,0,0,0,38,53.69Z"/><rect class="cls-52" x="28.67" y="83.52" width="15.94" height="9.89" transform="translate(-16.98 9.13) rotate(-11.55)"/><rect class="cls-53" x="31.24" y="96.07" width="15.94" height="9.88" transform="translate(-19.46 9.91) rotate(-11.57)"/><rect class="cls-54" x="23.49" y="58.5" width="15.95" height="9.88" transform="translate(-12.08 7.6) rotate(-11.57)"/><rect class="cls-55" x="26.13" y="71.04" width="15.94" height="9.88" transform="translate(-14.54 8.37) rotate(-11.56)"/><path class="cls-47" d="M29.24,57.17a.78.78,0,0,0-1-.42l-16,6.33a.79.79,0,0,0-.42,1L35,122.66a.78.78,0,0,0,1,.42l16-6.32a.8.8,0,0,0,.42-1Z"/><rect class="cls-56" x="24.39" y="86.38" width="15.94" height="9.89" transform="translate(-31.29 18.28) rotate(-21.55)"/><rect class="cls-57" x="29.05" y="98.24" width="15.94" height="9.88" transform="translate(-35.31 20.81) rotate(-21.55)"/><rect class="cls-58" x="14.95" y="62.55" width="15.95" height="9.89" transform="translate(-23.19 13.14) rotate(-21.55)"/><rect class="cls-59" x="19.64" y="74.41" width="15.94" height="9.89" transform="translate(-27.22 15.69) rotate(-21.55)"/><circle class="cls-60" cx="47.43" cy="114.78" r="1.91"/><path class="cls-61" d="M458.71,191.19,408.59,241H228.91l57.42-54.38a2,2,0,0,0,0,.43,4.77,4.77,0,0,0,4,4,3.26,3.26,0,0,0,.76.07l140.71.05Z"/><path class="cls-62" d="M510.84,180.27,497,193l-52.15,48H408.59l50.12-49.81H431.84l56.43-50.91,10.22,23.85c1.68,7.37,4.22,16.7,11.06,16.33h0A7.43,7.43,0,0,0,510.84,180.27Z"/><path class="cls-63" d="M252.09,110.77l.51,1.41,1,2.79,2,5.52h0l-1.74.65.9,2.46,1.1,3,2.9,7.91s0,0,0,.07l1.45,4a2.59,2.59,0,0,0,3.32,1.56l2.75-1a2.59,2.59,0,0,0,1.55-3.32l-1.45-4s0,0,0-.05l-1.35-3.69h0l-.92-2.5-1.71-4.69-.93-2.53-1.74.64h0l-2-5.54-1-2.79-.53-1.41A18.68,18.68,0,0,1,252.09,110.77Z"/><path class="cls-64" d="M258.77,70a24.19,24.19,0,0,0-2.37-1.26A23,23,0,0,0,238.77,68h0a23.11,23.11,0,0,0-1.8,42.66c.62.29,1.26.55,1.89.78a23.06,23.06,0,0,0,11.82,1c.62-.11,1.25-.24,1.86-.41a23,23,0,0,0,14.81-12c.1-.19.21-.41.3-.62a25.42,25.42,0,0,0,1-2.57.5.5,0,0,0,0-.13,22.27,22.27,0,0,0,1.09-6.52A23,23,0,0,0,267.7,80.1c-.14-.3-.29-.6-.44-.9-.27-.54-.57-1.06-.88-1.58A22.94,22.94,0,0,0,258.77,70Zm4.46,9.56c.26.44.51.88.74,1.33.13.25.25.51.36.76a19.32,19.32,0,0,1,.83,14l0,.11a19.74,19.74,0,0,1-.85,2.16c-.08.17-.17.35-.26.52a19.34,19.34,0,0,1-9,8.82,20.51,20.51,0,0,1-3.46,1.27c-.52.14-1,.25-1.57.34a19.41,19.41,0,0,1-9.92-.85q-.81-.3-1.59-.66a19.22,19.22,0,0,1-6.26-4.62,19.4,19.4,0,0,1-4.06-18.9,17.88,17.88,0,0,1,.88-2.26,19.37,19.37,0,0,1,11-10.06h0a19.4,19.4,0,0,1,14.81.63,18.75,18.75,0,0,1,2,1.07A19.29,19.29,0,0,1,263.23,79.55Z"/><path class="cls-65" d="M256.61,73.51a21.12,21.12,0,0,0-1.94-1,19,19,0,0,0-14.49-.61h0a18.9,18.9,0,0,0-10.71,9.84,18,18,0,0,0-.86,2.21,19,19,0,0,0,.58,13.13,19.31,19.31,0,0,0,3.39,5.35,19,19,0,0,0,6.12,4.52c.51.23,1,.45,1.56.64a19,19,0,0,0,9.7.85c.52-.1,1-.21,1.54-.34a21,21,0,0,0,3.38-1.24,18.91,18.91,0,0,0,8.78-8.63c.09-.16.17-.34.25-.51a18.83,18.83,0,0,0,.83-2.11.38.38,0,0,0,0-.1,18.48,18.48,0,0,0,.9-5.37,18.84,18.84,0,0,0-1.71-8.28c-.11-.25-.23-.49-.35-.74-.23-.44-.47-.87-.73-1.3A18.67,18.67,0,0,0,256.61,73.51Z"/><path class="cls-66" d="M436.85,113.15q-2.19-14.07-4.4-28.12H346q-2.19,14.06-4.39,28.12c-.83,5.08,3,9.2,8.5,9.2h78.23C433.87,122.35,437.67,118.23,436.85,113.15Z"/><path class="cls-67" d="M346,85q-1.39,9-2.8,17.9h92L432.46,85Z"/><path class="cls-67" d="M528.86,37.55a13.79,13.79,0,0,1-.35,1.7v0l-.4,1,0,.08c0-2.89-2.13-5-5.55-5H255.93c-3.43,0-5.54,2.07-5.54,5l0-.09-.4-1a11.38,11.38,0,0,1-.35-1.64c-.39-2.85,0-7.24,5.57-7.24H523.29C528.79,30.36,529.21,34.71,528.86,37.55Z"/><path class="cls-68" d="M528.86,37.55a4.42,4.42,0,0,1-.35,1.7v0l-.4,1,0,.08L507.49,91.86a3.83,3.83,0,0,1-3.08,2.1H274.05a3.82,3.82,0,0,1-3.08-2.1L250.39,40.39h0l0-.09L250,39.24a4.22,4.22,0,0,1-.35-1.64,2,2,0,0,1,.35-1.15,3,3,0,0,1,2.63-1H525.89c.84,0,2.81.2,3,2A.45.45,0,0,0,528.86,37.55Z"/><polygon class="cls-69" points="519.85 39.4 518.07 44 500.83 88.33 277.84 88.69 260.4 44 258.61 39.4 519.85 39.4"/><polygon class="cls-11" points="512.29 46.01 504.55 65.91 273.95 65.91 266.18 46.01 512.29 46.01"/><polygon class="cls-9" points="327.59 39.4 263.71 39.4 263.71 39.66 265.4 44 265.49 44.22 327.59 44.22 327.59 39.4"/><polygon class="cls-10" points="328.12 67.7 328.12 80.44 279.62 80.44 274.65 67.7 328.12 67.7"/><rect class="cls-10" x="332.67" y="67.7" width="54.4" height="12.74"/><rect class="cls-10" x="391.63" y="67.7" width="54.4" height="12.74"/><rect class="cls-10" x="391.63" y="82.23" width="54.4" height="1.62"/><rect class="cls-10" x="332.67" y="82.23" width="20.99" height="1.62"/><polygon class="cls-10" points="312.93 82.23 312.93 83.84 280.94 83.84 280.32 82.23 312.93 82.23"/><rect class="cls-10" x="391.63" y="85.04" width="39.22" height="1.62"/><rect class="cls-10" x="332.67" y="85.04" width="54.4" height="1.62"/><polygon class="cls-10" points="328.12 85.04 328.12 86.65 282.04 86.65 281.41 85.04 328.12 85.04"/><polygon class="cls-10" points="446.03 87.85 446.03 88.42 391.63 88.51 391.63 87.85 446.03 87.85"/><polygon class="cls-10" points="328.12 87.85 328.12 88.62 282.84 88.7 282.51 87.85 328.12 87.85"/><polygon class="cls-10" points="503.85 67.7 498.9 80.44 450.34 80.44 450.34 67.7 503.85 67.7"/><polygon class="cls-10" points="498.2 82.23 497.58 83.84 450.34 83.84 450.34 82.23 498.2 82.23"/><rect class="cls-10" x="450.35" y="85.04" width="39.23" height="1.62"/><polygon class="cls-10" points="496.02 87.85 495.83 88.33 450.34 88.41 450.34 87.85 496.02 87.85"/><path class="cls-47" d="M511.31,170.39a12.52,12.52,0,0,1-9.48,14.8l-2.61.54a12.51,12.51,0,0,1-14.8-9.48l-5.23-23.73a12.51,12.51,0,0,1,9.47-14.79l2.62-.55a12.52,12.52,0,0,1,14.8,9.48Z"/><rect class="cls-70" x="491.37" y="137.27" width="0.81" height="16.51" transform="translate(-19.68 107.61) rotate(-12.24)"/><path class="cls-71" d="M455.67,191.2l-164.54-.06a3.82,3.82,0,0,1-.75-.08,4.81,4.81,0,0,1-4-4,3,3,0,0,1,0-.43l-.19-48.68a4,4,0,0,1,2-3.51,5.53,5.53,0,0,1,2.81-.86h.25l164.34,0a4.32,4.32,0,0,1,.73.06l.2,0a4.8,4.8,0,0,1,4,4,3.13,3.13,0,0,1,0,.43l.18,48.69a4,4,0,0,1-2.05,3.52,5.63,5.63,0,0,1-2.79.85Z"/><polygon class="cls-72" points="446.69 139.55 446.86 151.88 439.71 151.84 439.74 160.71 457.87 160.74 457.87 139.59 446.69 139.55"/><rect class="cls-72" x="288.93" y="139.64" width="11.14" height="8.84"/><rect class="cls-72" x="304.59" y="139.55" width="11.14" height="8.85"/><rect class="cls-72" x="320.4" y="139.57" width="11.14" height="8.85"/><rect class="cls-72" x="336.36" y="139.52" width="11.14" height="8.85"/><rect class="cls-72" x="352.11" y="139.52" width="11.14" height="8.85"/><rect class="cls-72" x="368.02" y="139.67" width="11.14" height="8.85"/><rect class="cls-72" x="383.67" y="139.57" width="11.14" height="8.85" transform="translate(-0.16 0.43) rotate(-0.06)"/><rect class="cls-72" x="399.6" y="139.65" width="11.14" height="8.85"/><polygon class="cls-72" points="426.26 139.77 415.25 139.46 415.15 148.41 426.19 148.61 426.26 139.77"/><rect class="cls-72" x="431.06" y="139.57" width="11.15" height="8.85"/><rect class="cls-72" x="289.03" y="164.42" width="11.14" height="8.85"/><rect class="cls-72" x="304.6" y="164.38" width="11.14" height="8.85"/><rect class="cls-72" x="320.56" y="164.38" width="11.14" height="8.85"/><rect class="cls-72" x="336.3" y="164.35" width="11.14" height="8.85"/><rect class="cls-72" x="351.88" y="164.33" width="11.14" height="8.85"/><rect class="cls-72" x="367.93" y="164.52" width="11.14" height="8.85"/><polygon class="cls-72" points="394.78 164.35 383.64 164.35 383.63 173.2 394.77 173.2 394.78 164.35"/><polygon class="cls-72" points="410.62 173.38 410.53 164.3 399.4 164.47 399.54 173.36 410.62 173.38"/><rect class="cls-72" x="415.19" y="164.41" width="11.14" height="8.85"/><rect class="cls-72" x="431.27" y="164.46" width="11.15" height="8.85"/><rect class="cls-72" x="446.59" y="164.29" width="11.15" height="8.85"/><rect class="cls-72" x="289.29" y="177.09" width="18.35" height="8.85"/><rect class="cls-72" x="446.59" y="177.09" width="11.27" height="8.85"/><rect class="cls-72" x="312.93" y="177.17" width="11.14" height="8.85"/><rect class="cls-72" x="328.44" y="177.08" width="11.14" height="8.85"/><rect class="cls-72" x="344.39" y="177.09" width="66.52" height="8.85"/><rect class="cls-72" x="415.64" y="177.05" width="11.14" height="8.85"/><polygon class="cls-72" points="431.41 177.07 431.44 185.94 442.29 186.01 442.25 177.14 431.41 177.07"/><rect class="cls-72" x="288.86" y="151.9" width="19.99" height="8.85"/><rect class="cls-72" x="313.47" y="151.87" width="11.14" height="8.85"/><rect class="cls-72" x="329.28" y="151.68" width="11.14" height="8.85"/><polygon class="cls-72" points="356.24 151.79 345.1 151.79 345.1 160.64 356.24 160.64 356.24 151.79"/><rect class="cls-72" x="360.67" y="151.85" width="11.14" height="8.85"/><rect class="cls-72" x="376.58" y="151.7" width="11.14" height="8.85"/><rect class="cls-72" x="392.37" y="151.96" width="11.14" height="8.85"/><rect class="cls-72" x="408.22" y="151.88" width="11.15" height="8.85"/><rect class="cls-72" x="424.13" y="151.92" width="11.15" height="8.85"/><path class="cls-73" d="M315.09,154.62l-5.51,15.92a.5.5,0,0,0,0,.12l.82.29,7.46-21.38a4,4,0,0,1,7.61,2.65L318,173.44h0a.9.9,0,0,0,0,.16l.83.3a2.44,2.44,0,0,1,.14-.28l9.47-27.13a4,4,0,1,1,7.6,2.65l-9.61,27.41.77.27,7.48-21.43a4,4,0,0,1,7.6,2.65l-7.45,21.22-4.55,13,1.67-1.52s.5-1.44,2.62-7.49,8.81-2.27,8.81-2.27l-7.9,22.63-12.86,10.61-32.7-11.4,12-34.41h0L307.48,152a4,4,0,0,1,7.61,2.65Z"/><path class="cls-74" d="M334.77,157.07l.43-1.25a3.43,3.43,0,0,1,2.64-2.27,3.37,3.37,0,0,1,1.66.14,3.27,3.27,0,0,1,2.18,2.56,3.58,3.58,0,0,1-.14,1.77l-.82,2.31-5.18-1.81-1.14-.4Zm-6.59-7.92.77-2.23a3.38,3.38,0,0,1,4.31-2.12,3.19,3.19,0,0,1,1.48,1,3.38,3.38,0,0,1,.56,3.29l-.81,2.34-6.32-2.22Zm-9.77.85a3.34,3.34,0,0,1,4.19-2.14l.1,0a3.36,3.36,0,0,1,2.05,4.33l-.82,2.32-3.42-1.19h0l-2.91-1Zm-10.35,2.39a3.2,3.2,0,0,1,.27-.56,3.31,3.31,0,0,1,4-1.53s.07,0,.08,0h0a3.33,3.33,0,0,1,2.06,3.9,2.07,2.07,0,0,1-.11.36l-.81,2.32-3.13-1.08-3.2-1.13Zm30.33,31.83a3.63,3.63,0,0,1,4.6-2.29h0l-1.17,3.36h0l-.09.24-.07.21-.19.55-.55,1.62h0l-2.42-.86-1-.33Z"/><path class="cls-75" d="M323.88,213.44l-5.29,15-30.24-10.64a7,7,0,0,1-4.26-8.88l3-8.46Z"/><polygon class="cls-75" points="315.29 227.1 310.31 241 280.32 241 288.69 217.74 315.29 227.1"/><rect class="cls-76" x="299.99" y="209.99" width="3.08" height="28.2" transform="translate(-9.89 434.22) rotate(-70.63)"/><path class="cls-76" d="M283.88,209.7l6.36-3a4,4,0,0,1,3.48,7.27L287,217.16A7,7,0,0,1,283.88,209.7Z"/><circle class="cls-11" cx="291.98" cy="210.28" r="4.03"/><polygon class="cls-75" points="520.86 241 492.46 241 490.6 223.32 518.67 220.71 519.44 227.82 520.86 241"/><path class="cls-75" d="M486.14,212.39l1.48,15.87,31.92-2.95a7,7,0,0,0,6.29-7.57L525,208.8Z"/><rect class="cls-76" x="491.1" y="226.63" width="28.2" height="3.08" transform="translate(-18.74 47.13) rotate(-5.24)"/><path class="cls-76" d="M525.85,218.51,520.42,214a4,4,0,0,0-5.15,6.2L521,225A6.94,6.94,0,0,0,525.85,218.51Z"/><path class="cls-11" d="M514.75,214.52a4,4,0,1,1,.51,5.68A4,4,0,0,1,514.75,214.52Z"/><path class="cls-77" d="M514.82,168.49a4.1,4.1,0,0,0-3.71,4.08l-.89.08a4.08,4.08,0,0,0-8.1.75l-.9.09a4.08,4.08,0,0,0-8.1.75l-.87.08-2.13-22.95a4.08,4.08,0,1,0-8.13.76l3.44,36.61-1.27-1.9s-.14-1.55-.74-8-8.13-4.4-8.13-4.4l2.24,24.24,10.08,13.6,35-3.23-3.36-36.84A4.08,4.08,0,0,0,514.82,168.49Z"/><path class="cls-74" d="M485.76,148.52a3.43,3.43,0,0,0-3.08,3.77l.24,2.48,6.78-.62-.23-2.49A3.42,3.42,0,0,0,485.76,148.52Z"/><path class="cls-78" d="M485.76,148.52a3.4,3.4,0,0,0-3.08,3.6l.33-.2a3.06,3.06,0,0,1,6.07-.56l.37.14A3.41,3.41,0,0,0,485.76,148.52Z"/><path class="cls-74" d="M476,181.88l3.64-.34-.24-2.67a3.67,3.67,0,0,0-4-3.38Z"/><path class="cls-78" d="M475.42,175.86a3.18,3.18,0,0,1,3.54,2.68l.39.15a3.66,3.66,0,0,0-4-3.2Z"/><rect class="cls-6" x="547.13" y="178.73" width="64.42" height="46.53" transform="matrix(0.87, -0.5, 0.5, 0.87, -23.42, 316.52)"/><polygon class="cls-79" points="585.13 181.27 579.36 178.59 582.09 184.34 585.13 181.27"/><polygon class="cls-80" points="592.3 188.36 585.2 181.3 585.13 181.27 582.09 184.34 582.12 184.4 589.23 191.46 592.3 188.36"/><polygon class="cls-79" points="610.77 207.17 609.26 210.88 610.95 212.56 613.14 207.15 605.74 199.81 604.29 199.6 612.39 207.64 612.07 208.46 610.77 207.17"/><polygon class="cls-80" points="589.23 191.46 609.4 211.5 611.2 207.12 592.3 188.36 589.23 191.46"/><path class="cls-81" d="M248.29,172.51,179.8,241H98.89l12-12,96.92-96.92a28.61,28.61,0,0,0,0,40.46,28.63,28.63,0,0,0,40.46,0Z"/><circle class="cls-82" cx="228.06" cy="152.28" r="28.61"/><path class="cls-83" d="M247.76,168.54l-5-5-4.37,4.37,5,5a1.34,1.34,0,0,0,2,0l2.19-2.19A1.41,1.41,0,0,0,247.76,168.54Z"/><path class="cls-84" d="M213.21,167.13a21.11,21.11,0,1,1,29.86,0A21,21,0,0,1,213.21,167.13Z"/><path class="cls-85" d="M214,166.35a20,20,0,1,1,28.3,0A20,20,0,0,1,214,166.35Z"/><circle class="cls-86" cx="228.22" cy="152.28" r="15.79"/><path class="cls-87" d="M235.72,143.52c6.1,5,4.38,11.11,0,15.48-6.72,3.13-11.1,4.38-15.48,0s-4.85-14.22,0-15.48C224.93,142.12,229.62,138.52,235.72,143.52Z"/><polygon class="cls-88" points="10.28 137.11 21.23 234.6 180.02 216.89 169.08 119.39 10.28 137.11"/><polygon class="cls-89" points="173.29 228.7 160.99 241 0 241 0 144.3 13.01 131.29 13.51 229.4 96.88 229.03 110.91 228.97 171.73 228.71 173.29 228.7"/><polygon class="cls-6" points="13.01 131.29 13.51 229.4 173.29 228.7 172.79 130.6 13.01 131.29"/><path class="cls-90" d="M81.85,212.19l-2.42-73.31-60,1.91v.37l59.74-2L81.66,215l-59.8.24,0,.07L18.31,144h-.37l3.75,76,59.11.71,1-8.5Zm-1.36,8.25L22,219.78l-.16-4.17,59.79-.25,0-.13-1.18,5.21Z"/><path class="cls-90" d="M20.93,149.36l.65,13.52,54.14-2.4L74.35,148Zm53.2-1,1.3,11.73-53.51,2.45-.6-12.87Z"/><path class="cls-90" d="M76.42,163l-54.5,1.83.25,4.91-.19.05-.06.27,54.54-1.68,0-5.38Zm0,4.9L22.61,169.8l-.2-4.72,53.71-2,.26,4.78Z"/><path class="cls-90" d="M45.06,193.94l10.07-.36-1.57-21.16-30.66.84,1.85,20.93,20.31-.25Zm-15.12-.18-5,.08-1.64-20.61,30.19-.38,1.44,20.49Z"/><path class="cls-90" d="M76.73,182l-.89-10.64-18.25,1.11,2,21.08,18.07-.28-1-11.27Zm.66,11L60,193.3l-2-20.52,17.64-1.23L77.39,193Z"/><path class="cls-90" d="M39,197.55l-15.17.19.08,8.81,15.91.54L39,197.55Zm.51,9.3-15.42-.71L24,198.06l14.72.11.75,8.68Z"/><path class="cls-90" d="M63.7,197l.87,10.27,13.81-.36-.16-9.75L63.7,197Zm14.26.56.09,9.19L64.72,207l-.6-9.84,13.84.38Z"/><path class="cls-90" d="M43.6,198.05l.87,9.19,16-.36-.16-9.75-16.67.92Zm16.4-.52.1,9.19L44.61,207,44,198.22l16-.69Z"/><path class="cls-90" d="M21.41,142.17v5.5l13.86-.1-.47-5.4Zm13.64,5-13.36-.14v-4.77l12.77.29.59,4.62Z"/><path class="cls-90" d="M72.45,143.29l.24-.23-17,.48,0,.37,16.72-.62Z"/><path class="cls-91" d="M32.31,156.5a1.73,1.73,0,0,0,0,.37.18.18,0,0,1,0,.06.2.2,0,0,1-.07.11.24.24,0,0,1-.15.06q-.21,0-.21-.39a7.33,7.33,0,0,1,.16-1.25,2.47,2.47,0,0,0,.06-.36.41.41,0,0,1,.05-.23.16.16,0,0,1,.14-.1.24.24,0,0,1,.17.06.14.14,0,0,1,.06.12.67.67,0,0,1,0,.17,6.91,6.91,0,0,0-.19.81A3.11,3.11,0,0,0,32.31,156.5Zm.28-2.4s-.06,0-.07-.09l0-.07a.57.57,0,0,1-.05-.24.26.26,0,0,1,.1-.18.31.31,0,0,1,.22-.09.33.33,0,0,1,.15,0,.13.13,0,0,1,.07.1.72.72,0,0,1,0,.24.33.33,0,0,1-.17.22A.38.38,0,0,1,32.59,154.1Z"/><path class="cls-91" d="M34.79,155.28c-.13,0-.42.39-.85,1.18-.15.27-.24.41-.26.44l-.14.06-.16,0c-.09,0-.14-.19-.14-.57a8.19,8.19,0,0,1,.13-1.14,3.32,3.32,0,0,0,.06-.48c0-.09,0-.14.13-.14s.23.11.23.34a3.69,3.69,0,0,1-.08.63,6.14,6.14,0,0,0-.09.66,3,3,0,0,0,.39-.56,4.46,4.46,0,0,1,.54-.77.53.53,0,0,1,.36-.15c.09,0,.16.06.22.19a3.13,3.13,0,0,1,.1.89.84.84,0,0,0,0,.26c0,.06,0,.09,0,.09s.22-.23.44-.69a2.5,2.5,0,0,1,.35-.55.5.5,0,0,1,.38-.19.25.25,0,0,1,.25.18,1.81,1.81,0,0,1,.12.53,3.87,3.87,0,0,0,.1.65.52.52,0,0,0,.25.39c.08,0,.12.08.12.13s0,.1-.1.16a.34.34,0,0,1-.19.07.37.37,0,0,1-.31-.21,2.43,2.43,0,0,1-.21-.91,3.21,3.21,0,0,0,0-.39q0-.12-.09-.12c-.06,0-.13.06-.22.17a6.85,6.85,0,0,0-.39.7c-.15.27-.26.45-.33.55a.29.29,0,0,1-.21.13.22.22,0,0,1-.17-.07.31.31,0,0,1-.09-.18,5.11,5.11,0,0,1,0-.51A2,2,0,0,0,34.79,155.28Z"/><path class="cls-91" d="M39.14,156.2a2.42,2.42,0,0,1-.6.6.91.91,0,0,1-.54.2.34.34,0,0,1-.28-.14.52.52,0,0,1-.12-.36,2,2,0,0,1,.5-1.21,1.36,1.36,0,0,1,1-.66.28.28,0,0,1,.27.21.09.09,0,0,0,.09.07c.12,0,.17,0,.17.13a.72.72,0,0,1,0,.19,5.26,5.26,0,0,0-.11.89c0,.35.06.56.19.63s.1.07.1.12,0,.09-.09.14a.32.32,0,0,1-.18.07c-.11,0-.2-.08-.27-.23A1.44,1.44,0,0,1,39.14,156.2ZM39,155c-.19,0-.41.17-.66.53a1.64,1.64,0,0,0-.38.88c0,.17.06.25.16.25s.38-.16.66-.48a1.37,1.37,0,0,0,.42-.88C39.21,155.09,39.14,155,39,155Z"/><path class="cls-91" d="M41.79,156.2s-.06,0-.14.12a1.86,1.86,0,0,1-.5.41,1.14,1.14,0,0,1-.57.18.39.39,0,0,1-.3-.12.5.5,0,0,1-.11-.34,1.42,1.42,0,0,1,.25-.74,2.43,2.43,0,0,1,.71-.72,1.48,1.48,0,0,1,.79-.3.48.48,0,0,1,.31.1l.06.05a.26.26,0,0,1,.07.11.44.44,0,0,1,0,.14.18.18,0,0,1,0,.09,5.19,5.19,0,0,0-.18.6c0,.15-.06.41-.1.79s-.07.59-.11.77a1.57,1.57,0,0,1-.22.52,1.06,1.06,0,0,1-.38.38.89.89,0,0,1-.45.12,1.37,1.37,0,0,1-.79-.27q-.39-.28-.39-.45c0-.06,0-.1.08-.1a.81.81,0,0,1,.23.13A1.72,1.72,0,0,0,41,158a.57.57,0,0,0,.53-.37,3.11,3.11,0,0,0,.25-1.13C41.77,156.38,41.78,156.28,41.79,156.2Zm0-1.18a.85.85,0,0,0-.46.19,2.21,2.21,0,0,0-.53.56,1.14,1.14,0,0,0-.26.61.19.19,0,0,0,.17.18.93.93,0,0,0,.5-.2,1.56,1.56,0,0,0,.53-.55,1.16,1.16,0,0,0,.23-.55C42,155.1,41.91,155,41.79,155Z"/><path class="cls-91" d="M44.64,156.25c0,.15-.13.32-.39.53a1.24,1.24,0,0,1-.8.31.69.69,0,0,1-.53-.2.8.8,0,0,1-.19-.57,1.91,1.91,0,0,1,.42-1.17,1.14,1.14,0,0,1,.9-.56.37.37,0,0,1,.27.11.37.37,0,0,1,.1.25.89.89,0,0,1-.33.64,4.26,4.26,0,0,1-.86.59q-.12.06-.12.15a.37.37,0,0,0,.41.39,1.37,1.37,0,0,0,.95-.51.16.16,0,0,1,.1-.07S44.64,156.18,44.64,156.25Zm-1.49-.33c.6-.36.91-.65.91-.87s0-.13-.12-.13a.62.62,0,0,0-.44.29A1.53,1.53,0,0,0,43.15,155.92Z"/><path class="cls-91" d="M47.24,155.76a2.72,2.72,0,0,1,.66-.81,1.18,1.18,0,0,1,.69-.32.38.38,0,0,1,.29.16.62.62,0,0,1,.12.38,1.88,1.88,0,0,1-.51,1.26,1.42,1.42,0,0,1-1.06.59.47.47,0,0,1-.28-.09.27.27,0,0,1-.15-.2.21.21,0,0,0,0-.15.26.26,0,0,1-.1-.2,7.57,7.57,0,0,1,.11-.84l.22-1.28a7.44,7.44,0,0,1,.17-.8.34.34,0,0,1,.12-.2.2.2,0,0,1,.15-.06c.1,0,.16.09.16.26a2.12,2.12,0,0,1-.17.69A10.46,10.46,0,0,0,47.24,155.76Zm-.05.72c.08.14.17.2.27.2a.85.85,0,0,0,.52-.2,1.69,1.69,0,0,0,.47-.57,1.38,1.38,0,0,0,.2-.62.38.38,0,0,0,0-.19c0-.06-.06-.08-.1-.08a1.13,1.13,0,0,0-.73.48A2.62,2.62,0,0,0,47.19,156.48Z"/><path class="cls-91" d="M50.86,156.2a2.42,2.42,0,0,1-.6.6.91.91,0,0,1-.54.2.34.34,0,0,1-.28-.14.52.52,0,0,1-.12-.36,2.08,2.08,0,0,1,.5-1.21,1.36,1.36,0,0,1,1-.66.29.29,0,0,1,.27.21.09.09,0,0,0,.09.07c.12,0,.17,0,.17.13a.72.72,0,0,1,0,.19,5.26,5.26,0,0,0-.11.89c0,.35.06.56.19.63s.1.07.1.12,0,.09-.09.14a.32.32,0,0,1-.18.07c-.11,0-.2-.08-.27-.23A1.59,1.59,0,0,1,50.86,156.2ZM50.73,155c-.19,0-.41.17-.66.53a1.64,1.64,0,0,0-.38.88c0,.17.06.25.17.25s.37-.16.65-.48a1.37,1.37,0,0,0,.42-.88C50.93,155.09,50.86,155,50.73,155Z"/><path class="cls-91" d="M53.46,155.33a.38.38,0,0,0-.25.14,5.17,5.17,0,0,0-.4.65,4.22,4.22,0,0,1-.46.78.35.35,0,0,1-.17.1.23.23,0,0,1-.26-.25,1.37,1.37,0,0,1,0-.29,7.59,7.59,0,0,0,.12-1.37.32.32,0,0,1,.07-.18c0-.07.09-.11.13-.11a.19.19,0,0,1,.16.07.61.61,0,0,1,0,.28,5.67,5.67,0,0,1-.13.89c0,.15,0,.25,0,.29s0,0,0,0a2.63,2.63,0,0,0,.3-.51,3,3,0,0,1,.47-.74.59.59,0,0,1,.44-.21.37.37,0,0,1,.32.18,1.43,1.43,0,0,1,.17.64,4.17,4.17,0,0,0,.11.66.17.17,0,0,0,.16.13.41.41,0,0,0,.16,0h0c.06,0,.09,0,.09.11a.29.29,0,0,1-.12.2.48.48,0,0,1-.31.1.3.3,0,0,1-.28-.14,2.07,2.07,0,0,1-.16-.77C53.67,155.54,53.59,155.33,53.46,155.33Z"/><path class="cls-91" d="M56.38,155.33a.38.38,0,0,0-.25.14,4.18,4.18,0,0,0-.4.65,4.22,4.22,0,0,1-.46.78.35.35,0,0,1-.17.1.23.23,0,0,1-.26-.25,1.37,1.37,0,0,1,0-.29,7.59,7.59,0,0,0,.12-1.37.38.38,0,0,1,.06-.18c0-.07.1-.11.14-.11a.19.19,0,0,1,.16.07.61.61,0,0,1,0,.28,5.67,5.67,0,0,1-.13.89c0,.15,0,.25,0,.29s0,0,0,0a2.63,2.63,0,0,0,.3-.51,3,3,0,0,1,.47-.74.59.59,0,0,1,.44-.21.37.37,0,0,1,.32.18,1.54,1.54,0,0,1,.18.64,4.69,4.69,0,0,0,.1.66c0,.09.09.13.16.13a.51.51,0,0,0,.17,0h0c.06,0,.09,0,.09.11a.29.29,0,0,1-.12.2.48.48,0,0,1-.31.1.31.31,0,0,1-.28-.14,2.07,2.07,0,0,1-.16-.77C56.59,155.54,56.5,155.33,56.38,155.33Z"/><path class="cls-91" d="M59.67,156.25c0,.15-.13.32-.39.53a1.24,1.24,0,0,1-.8.31.69.69,0,0,1-.53-.2.8.8,0,0,1-.19-.57,1.91,1.91,0,0,1,.42-1.17,1.14,1.14,0,0,1,.9-.56.37.37,0,0,1,.27.11.37.37,0,0,1,.1.25.89.89,0,0,1-.33.64,4.26,4.26,0,0,1-.86.59q-.12.06-.12.15a.37.37,0,0,0,.41.39,1.37,1.37,0,0,0,1-.51.16.16,0,0,1,.1-.07S59.67,156.18,59.67,156.25Zm-1.49-.33c.6-.36.91-.65.91-.87s0-.13-.12-.13a.62.62,0,0,0-.44.29A1.53,1.53,0,0,0,58.18,155.92Z"/><path class="cls-91" d="M60.55,156.13a.58.58,0,0,0,.05-.11,4,4,0,0,1,.27-.52l.27-.36a1.7,1.7,0,0,1,.27-.27,1.38,1.38,0,0,1,.22-.13l.19,0a.45.45,0,0,1,.31.11.34.34,0,0,1,.12.27.28.28,0,0,1,0,.12.17.17,0,0,1-.13,0,.21.21,0,0,1-.17-.08.21.21,0,0,0-.16-.07c-.15,0-.35.18-.62.53a2.63,2.63,0,0,0-.48,1.19.38.38,0,0,1-.08.23.29.29,0,0,1-.17.06c-.07,0-.12-.06-.15-.16a2.12,2.12,0,0,1,0-.53c0-.07,0-.22,0-.44s0-.49,0-.65a1.83,1.83,0,0,0,0-.19c0-.11,0-.19,0-.23a.35.35,0,0,1,.1-.12.2.2,0,0,1,.15-.06.17.17,0,0,1,.12,0,.25.25,0,0,1,0,.11.8.8,0,0,1,0,.23,1.21,1.21,0,0,0,0,.23l0,.16a4.21,4.21,0,0,0,0,.48v.14h0Z"/><path class="cls-91" d="M45.48,167.06c.35-.64.64-1,.87-1a.18.18,0,0,1,.15.11,2,2,0,0,1,.09.46,1,1,0,0,0,.16.55.28.28,0,0,1,.06.13.07.07,0,0,1,0,.06.16.16,0,0,1-.09,0,.26.26,0,0,1-.2-.12,1.15,1.15,0,0,1-.11-.44,1.74,1.74,0,0,0,0-.39c0-.06,0-.09-.09-.09s-.3.26-.6.78a1.86,1.86,0,0,1-.2.3.16.16,0,0,1-.11.07.2.2,0,0,1-.11,0,.12.12,0,0,1,0-.09s0-.08,0-.16c.12-.6.21-1.19.28-1.78a.56.56,0,0,1,.07-.27s.06-.07.09-.07a.18.18,0,0,1,.11.05.2.2,0,0,1,0,.14,3.06,3.06,0,0,1-.13.72c0,.15-.09.34-.14.57a3.88,3.88,0,0,0-.06.44h0Z"/><path class="cls-91" d="M48.28,167c0,.09-.09.21-.26.35a.8.8,0,0,1-.53.2.43.43,0,0,1-.35-.14.51.51,0,0,1-.12-.37,1.27,1.27,0,0,1,.27-.77.77.77,0,0,1,.6-.37.29.29,0,0,1,.18.07.25.25,0,0,1,.06.17.61.61,0,0,1-.21.42,2.54,2.54,0,0,1-.58.39.14.14,0,0,0-.07.1.22.22,0,0,0,.07.19.24.24,0,0,0,.2.07.87.87,0,0,0,.62-.34l.08,0S48.28,167,48.28,167Zm-1-.23c.4-.23.61-.43.61-.57s0-.09-.08-.09a.47.47,0,0,0-.3.19A1.22,1.22,0,0,0,47.29,166.78Z"/><path class="cls-91" d="M49.53,167a1.66,1.66,0,0,1-.39.4.63.63,0,0,1-.35.13.21.21,0,0,1-.19-.09.36.36,0,0,1-.08-.24,1.37,1.37,0,0,1,.33-.8.88.88,0,0,1,.66-.43.19.19,0,0,1,.18.13.06.06,0,0,0,.06.05c.08,0,.11,0,.11.09a.57.57,0,0,1,0,.12,4,4,0,0,0-.08.59c0,.23,0,.37.13.41a.11.11,0,0,1,.07.09.1.1,0,0,1-.07.08.21.21,0,0,1-.11.05q-.12,0-.18-.15A1,1,0,0,1,49.53,167Zm-.08-.8c-.13,0-.27.12-.44.35a1.21,1.21,0,0,0-.25.59c0,.1,0,.16.11.16s.25-.11.44-.31a1,1,0,0,0,.27-.58C49.58,166.24,49.54,166.17,49.45,166.17Z"/><path class="cls-91" d="M51.3,166.9a1.9,1.9,0,0,1-.4.47.66.66,0,0,1-.39.17.27.27,0,0,1-.22-.11.47.47,0,0,1-.08-.28,1.22,1.22,0,0,1,.29-.73.81.81,0,0,1,.63-.38.35.35,0,0,1,.27.13l.2-.94a.24.24,0,0,1,.08-.13.18.18,0,0,1,.09,0c.07,0,.1,0,.1.17a1.49,1.49,0,0,1-.06.23,6,6,0,0,0-.2.77,4.06,4.06,0,0,0-.09.73c0,.19,0,.28.12.28a.37.37,0,0,0,.17,0,.07.07,0,0,1,.06,0s.05,0,.05.06,0,.1-.13.17a.43.43,0,0,1-.26.09c-.15,0-.23-.14-.23-.45Zm-.18-.67a.63.63,0,0,0-.46.32,1,1,0,0,0-.22.57c0,.12,0,.18.11.18a.5.5,0,0,0,.27-.11,1.43,1.43,0,0,0,.33-.38.83.83,0,0,0,.17-.38.22.22,0,0,0-.06-.13A.21.21,0,0,0,51.12,166.23Z"/><path class="cls-91" d="M53.42,167c0,.09-.08.21-.25.35a.82.82,0,0,1-.53.2.42.42,0,0,1-.35-.14.48.48,0,0,1-.13-.37,1.27,1.27,0,0,1,.27-.77.8.8,0,0,1,.6-.37.27.27,0,0,1,.18.07.26.26,0,0,1,.07.17.62.62,0,0,1-.22.42,2.45,2.45,0,0,1-.57.39.13.13,0,0,0-.08.1.24.24,0,0,0,.27.26.89.89,0,0,0,.63-.34s0,0,.07,0S53.42,167,53.42,167Zm-1-.23c.4-.23.6-.43.6-.57s0-.09-.08-.09a.48.48,0,0,0-.29.19A1.09,1.09,0,0,0,52.44,166.78Z"/><path class="cls-91" d="M54,166.92a.24.24,0,0,0,0-.07,2.54,2.54,0,0,1,.18-.34,1.08,1.08,0,0,1,.18-.24.76.76,0,0,1,.18-.18.41.41,0,0,1,.14-.08.31.31,0,0,1,.13,0,.28.28,0,0,1,.2.08.25.25,0,0,1,.08.17.11.11,0,0,1,0,.08.12.12,0,0,1-.08,0,.13.13,0,0,1-.11-.06.18.18,0,0,0-.11,0c-.1,0-.24.12-.41.36a1.73,1.73,0,0,0-.32.78c0,.08,0,.13,0,.15a.18.18,0,0,1-.11,0s-.08,0-.11-.1a1.44,1.44,0,0,1,0-.35c0-.05,0-.15,0-.3a4.19,4.19,0,0,1,0-.44.75.75,0,0,1,0-.12,1,1,0,0,1,0-.15s0-.06.06-.08a.18.18,0,0,1,.1,0,.08.08,0,0,1,.07,0,.09.09,0,0,1,0,.07.56.56,0,0,1,0,.15c0,.07,0,.13,0,.15a.45.45,0,0,1,0,.11,2.36,2.36,0,0,0,0,.32v.1Z"/><path class="cls-91" d="M63.85,182.66a.35.35,0,0,0-.21.13,4.55,4.55,0,0,0-.35.6,3.93,3.93,0,0,1-.4.71.28.28,0,0,1-.15.08.2.2,0,0,1-.22-.22,1.68,1.68,0,0,1,0-.27,7.08,7.08,0,0,0,.1-1.24.25.25,0,0,1,.07-.16c0-.07.08-.1.11-.1a.14.14,0,0,1,.14.07.47.47,0,0,1,0,.25,6.55,6.55,0,0,1-.11.81,1.6,1.6,0,0,0,0,.26s0,0,0,0a3.09,3.09,0,0,0,.26-.47,3.27,3.27,0,0,1,.4-.66.52.52,0,0,1,.39-.19.33.33,0,0,1,.28.15,1.49,1.49,0,0,1,.15.59,4.36,4.36,0,0,0,.09.6c0,.08.08.12.14.12a.51.51,0,0,0,.14,0l0,0s.08,0,.08.11,0,.11-.11.18a.39.39,0,0,1-.27.1.26.26,0,0,1-.24-.13,1.84,1.84,0,0,1-.14-.71C64,182.85,64,182.66,63.85,182.66Z"/><path class="cls-91" d="M66.72,183.5c0,.13-.11.29-.34.48a1,1,0,0,1-.69.27.61.61,0,0,1-.47-.18.75.75,0,0,1-.16-.52,1.81,1.81,0,0,1,.36-1.07,1,1,0,0,1,.79-.5.29.29,0,0,1,.23.1.32.32,0,0,1,.09.23.79.79,0,0,1-.29.57,4,4,0,0,1-.75.54.15.15,0,0,0-.1.14.39.39,0,0,0,.09.26.37.37,0,0,0,.27.1,1.14,1.14,0,0,0,.81-.47s.08-.06.1-.06S66.72,183.43,66.72,183.5Zm-1.3-.31c.53-.32.79-.59.79-.79s0-.11-.1-.11-.24.09-.39.26A1.65,1.65,0,0,0,65.42,183.19Z"/><path class="cls-91" d="M68.59,182.87s-.12.15-.25.45A6,6,0,0,1,68,184c-.11.19-.2.29-.25.29s-.3-.24-.43-.72a4.68,4.68,0,0,1-.2-1.16.42.42,0,0,1,.07-.23.22.22,0,0,1,.16-.1h.05s0,0,.08.06a.21.21,0,0,1,0,.12h0s0,.08,0,.19a2.69,2.69,0,0,0,0,.31,2.33,2.33,0,0,0,.11.65c.07.23.13.35.18.35a2,2,0,0,0,.34-.59l.27-.52.06-.12a1.29,1.29,0,0,1,.25-.36.17.17,0,0,1,.16.17s0,.07,0,.09a.19.19,0,0,0,0,.08,1.87,1.87,0,0,0,.18.76c.12.26.21.39.26.39s.09-.14.17-.41a4.8,4.8,0,0,1,.31-.85,1.3,1.3,0,0,1,.2-.33.27.27,0,0,1,.15,0,.09.09,0,0,1,.08,0,.14.14,0,0,1,0,.09.22.22,0,0,1,0,.1,3.56,3.56,0,0,0-.44,1c-.12.38-.21.62-.25.72s-.08.15-.11.15a.45.45,0,0,1-.37-.18,3.2,3.2,0,0,1-.39-.91A1,1,0,0,0,68.59,182.87Z"/><path class="cls-91" d="M71.42,183.71c0-.08-.1-.18-.3-.28a3.23,3.23,0,0,1-.51-.33.35.35,0,0,1-.13-.27.74.74,0,0,1,.37-.64,1.2,1.2,0,0,1,.61-.26.42.42,0,0,1,.22,0,.27.27,0,0,1,.06.19.13.13,0,0,1,0,.11s0,0-.07,0l-.08,0a.13.13,0,0,0-.08,0,1.14,1.14,0,0,0-.38.15c-.19.09-.29.2-.29.32a.26.26,0,0,0,.1.19,1.54,1.54,0,0,0,.37.22,1.27,1.27,0,0,1,.33.23.35.35,0,0,1,.13.28c0,.2-.13.36-.4.47a1.93,1.93,0,0,1-.75.17c-.2,0-.3-.07-.3-.22a.12.12,0,0,1,.07-.11.32.32,0,0,1,.14,0l.1,0,.1,0a1.5,1.5,0,0,0,.45-.07A.49.49,0,0,0,71.42,183.71Z"/><path class="cls-91" d="M48.72,219.16a.17.17,0,0,1-.06.06.15.15,0,0,1-.09,0c-.09,0-.14-.07-.14-.21a4.85,4.85,0,0,1,.07-.57c0-.19,0-.34,0-.44s0,0-.06-.07a.1.1,0,0,1-.06-.07.21.21,0,0,1,.09-.14.18.18,0,0,0,.09-.12c0-.05,0-.11,0-.19a1.46,1.46,0,0,1,.23-.63.47.47,0,0,1,.39-.19.29.29,0,0,1,.22.08.29.29,0,0,1,.09.22.8.8,0,0,1-.05.23c0,.09-.07.13-.11.13a0,0,0,0,1,0-.05v-.14q0-.27-.15-.27c-.11,0-.2.11-.28.33a1.85,1.85,0,0,0-.11.53s0,.06.09.06h.43s.07,0,.07.05a.09.09,0,0,1-.07.09,1,1,0,0,1-.31.06l-.24,0a5.79,5.79,0,0,0-.09.94.92.92,0,0,0,0,.19A.56.56,0,0,0,48.72,219.16Z"/><path class="cls-91" d="M49.93,219.16a.43.43,0,0,1-.32-.14.59.59,0,0,1-.12-.37,1.29,1.29,0,0,1,.24-.72.71.71,0,0,1,.59-.36.45.45,0,0,1,.37.18.59.59,0,0,1,.14.42,1,1,0,0,1-.29.68A.83.83,0,0,1,49.93,219.16Zm-.19-.55a.37.37,0,0,0,.06.23.17.17,0,0,0,.16.1.6.6,0,0,0,.42-.23.77.77,0,0,0,.21-.52.41.41,0,0,0-.08-.28.24.24,0,0,0-.22-.11.46.46,0,0,0-.39.28A1,1,0,0,0,49.74,218.61Z"/><path class="cls-91" d="M51.58,219.16a.42.42,0,0,1-.32-.14.54.54,0,0,1-.13-.37,1.23,1.23,0,0,1,.25-.72.7.7,0,0,1,.59-.36.46.46,0,0,1,.37.18.64.64,0,0,1,.14.42,1,1,0,0,1-.29.68A.84.84,0,0,1,51.58,219.16Zm-.2-.55a.37.37,0,0,0,.06.23.18.18,0,0,0,.16.1.64.64,0,0,0,.43-.23.77.77,0,0,0,.21-.52.47.47,0,0,0-.08-.28.25.25,0,0,0-.22-.11.47.47,0,0,0-.4.28A1.15,1.15,0,0,0,51.38,218.61Z"/><path class="cls-91" d="M53.38,217.66l.28,0h.21c.08,0,.12,0,.14,0a.06.06,0,0,1,0,.06c0,.08,0,.12-.16.13l-.38,0-.19,0a1.71,1.71,0,0,0-.08.34,2.68,2.68,0,0,0-.08.42.36.36,0,0,0,.05.21.14.14,0,0,0,.12,0,.65.65,0,0,0,.34-.18c.06-.06.1-.08.13-.08a.05.05,0,0,1,.06.06c0,.07-.06.16-.2.27a.62.62,0,0,1-.4.17c-.23,0-.34-.14-.34-.41a2,2,0,0,1,.07-.45c0-.2.07-.33.07-.37s0,0,0,0l-.14,0c-.13,0-.19-.05-.19-.15s0-.08.09-.08h.29a.05.05,0,0,0,0,0,.58.58,0,0,0,.07-.18,2.81,2.81,0,0,0,.08-.31c0-.1.07-.14.13-.14a.13.13,0,0,1,.1,0,.11.11,0,0,1,0,.08l-.05.2Z"/><path class="cls-91" d="M55.39,218.61c0,.1-.09.22-.26.35a.83.83,0,0,1-.53.21.45.45,0,0,1-.35-.14.56.56,0,0,1-.13-.38,1.28,1.28,0,0,1,.28-.77.77.77,0,0,1,.6-.37.24.24,0,0,1,.17.07.23.23,0,0,1,.07.17.55.55,0,0,1-.22.42,2.46,2.46,0,0,1-.57.4.1.1,0,0,0-.07.1.25.25,0,0,0,.07.19.28.28,0,0,0,.2.06.87.87,0,0,0,.62-.34l.07,0S55.39,218.56,55.39,218.61Zm-1-.22c.4-.23.6-.43.6-.57s0-.09-.07-.09a.43.43,0,0,0-.3.19A1,1,0,0,0,54.4,218.39Z"/><path class="cls-91" d="M56,218.53l0-.07a2.3,2.3,0,0,1,.17-.35l.18-.24a1,1,0,0,1,.18-.18.7.7,0,0,1,.14-.08.32.32,0,0,1,.13,0,.27.27,0,0,1,.2.07.25.25,0,0,1,.08.18.13.13,0,0,1,0,.08.1.1,0,0,1-.08,0,.16.16,0,0,1-.11,0,.14.14,0,0,0-.11-.06c-.1,0-.23.12-.41.36A1.72,1.72,0,0,0,56,219a.17.17,0,0,1-.05.14.18.18,0,0,1-.11,0s-.08,0-.1-.11a1.44,1.44,0,0,1,0-.35v-.29a3.72,3.72,0,0,1,0-.44.68.68,0,0,1,0-.12.91.91,0,0,1,0-.16l.06-.08a.17.17,0,0,1,.1,0,.11.11,0,0,1,.08,0,.19.19,0,0,1,0,.07.61.61,0,0,1,0,.16.64.64,0,0,0,0,.15s0,.06,0,.1a2.58,2.58,0,0,0,0,.32v.11Z"/><path class="cls-91" d="M25.74,143.45c.06,0,.09,0,.09.11a2.83,2.83,0,0,1-.11.47,3.69,3.69,0,0,0-.1.52,2.93,2.93,0,0,0,0,.44,2.6,2.6,0,0,0,0,.4v.05a.15.15,0,0,1,0,.11.12.12,0,0,1-.09,0s-.07,0-.09-.08a1.42,1.42,0,0,1,0-.26,5.89,5.89,0,0,1,.1-1,2.91,2.91,0,0,1,.15-.7C25.66,143.48,25.7,143.45,25.74,143.45Z"/><path class="cls-91" d="M26.38,145.56a.32.32,0,0,1-.27-.13.42.42,0,0,1-.11-.31,1,1,0,0,1,.21-.61.6.6,0,0,1,.5-.31.39.39,0,0,1,.32.15.55.55,0,0,1,.12.35.91.91,0,0,1-.25.59A.72.72,0,0,1,26.38,145.56Zm-.17-.47a.39.39,0,0,0,.05.2.17.17,0,0,0,.14.08.51.51,0,0,0,.36-.2.64.64,0,0,0,.18-.44.36.36,0,0,0-.07-.24.2.2,0,0,0-.18-.09.42.42,0,0,0-.34.23A.94.94,0,0,0,26.21,145.09Z"/><path class="cls-91" d="M28.28,145.06s0,0-.08.07a1.32,1.32,0,0,1-.28.23.7.7,0,0,1-.32.1.24.24,0,0,1-.17-.07.27.27,0,0,1-.06-.19.87.87,0,0,1,.14-.42,1.38,1.38,0,0,1,.4-.4.87.87,0,0,1,.45-.17.27.27,0,0,1,.17.06l0,0a.09.09,0,0,1,0,.06.15.15,0,0,1,0,.08.18.18,0,0,1,0,.06,2.3,2.3,0,0,0-.1.33,3.89,3.89,0,0,0-.06.44c0,.19,0,.33-.06.44a.81.81,0,0,1-.12.29.64.64,0,0,1-.21.22.62.62,0,0,1-.26.06.81.81,0,0,1-.45-.15c-.14-.1-.22-.19-.22-.25s0-.06.05-.06a.4.4,0,0,1,.13.07,1,1,0,0,0,.51.18.31.31,0,0,0,.3-.21,1.73,1.73,0,0,0,.14-.63A1.15,1.15,0,0,0,28.28,145.06Zm0-.66a.54.54,0,0,0-.26.1,1.25,1.25,0,0,0-.29.31.7.7,0,0,0-.15.35.11.11,0,0,0,0,.08.07.07,0,0,0,.06,0,.62.62,0,0,0,.29-.11,1.11,1.11,0,0,0,.3-.31.68.68,0,0,0,.12-.31C28.38,144.44,28.35,144.4,28.28,144.4Z"/><path class="cls-91" d="M29.21,145.56a.33.33,0,0,1-.28-.13.46.46,0,0,1-.1-.31,1,1,0,0,1,.2-.61.61.61,0,0,1,.51-.31.37.37,0,0,1,.31.15.55.55,0,0,1,.12.35.86.86,0,0,1-.25.59A.69.69,0,0,1,29.21,145.56Zm-.17-.47a.39.39,0,0,0,.05.2.16.16,0,0,0,.14.08.51.51,0,0,0,.36-.2.64.64,0,0,0,.18-.44.36.36,0,0,0-.07-.24.23.23,0,0,0-.19-.09.39.39,0,0,0-.33.23A.85.85,0,0,0,29,145.09Z"/><path class="cls-91" d="M35.49,187.46s.06,0,.08,0,0,.13,0,.26a1.48,1.48,0,0,1-.2.37,1.18,1.18,0,0,1-.28.27.71.71,0,0,1-.48.1.58.58,0,0,1-.43-.3A1.66,1.66,0,0,1,34,187a1.42,1.42,0,0,1,.52-1,.38.38,0,0,1,.29-.05.32.32,0,0,1,.22.15.79.79,0,0,1,.09.19.19.19,0,0,1,0,.15.26.26,0,0,1-.08.11H35a.12.12,0,0,1-.07-.05l0-.13a1.16,1.16,0,0,0-.06-.15c0-.08-.11-.1-.18-.05a.82.82,0,0,0-.29.44,1.83,1.83,0,0,0-.12.74,1.32,1.32,0,0,0,.17.65.46.46,0,0,0,.27.21.41.41,0,0,0,.35-.06.84.84,0,0,0,.22-.21,1.29,1.29,0,0,0,.19-.32A.47.47,0,0,1,35.49,187.46Z"/><path class="cls-91" d="M36.52,187.41a.43.43,0,0,1-.35,0,.58.58,0,0,1-.3-.24,1.3,1.3,0,0,1-.17-.75.71.71,0,0,1,.31-.61.5.5,0,0,1,.41,0,.71.71,0,0,1,.34.28,1,1,0,0,1,.11.74A.82.82,0,0,1,36.52,187.41Zm-.46-.37a.48.48,0,0,0,.18.17.17.17,0,0,0,.18,0,.58.58,0,0,0,.24-.42.74.74,0,0,0-.09-.55.52.52,0,0,0-.22-.2.25.25,0,0,0-.24,0,.48.48,0,0,0-.19.44A1.19,1.19,0,0,0,36.06,187Z"/><path class="cls-91" d="M37.77,185.26a.21.21,0,0,0-.08.17,2,2,0,0,0,0,.5,2.43,2.43,0,0,1,0,.61.15.15,0,0,1-.29.05.93.93,0,0,1-.08-.17,6.16,6.16,0,0,0-.41-.81.23.23,0,0,1,0-.13.12.12,0,0,1,0-.1.15.15,0,0,1,.11,0,.36.36,0,0,1,.13.14,4.49,4.49,0,0,1,.24.55,1.26,1.26,0,0,0,.07.17s0,0,0,0a2.26,2.26,0,0,0,0-.39,2.06,2.06,0,0,1,0-.58.42.42,0,0,1,.17-.28.26.26,0,0,1,.24,0,1,1,0,0,1,.33.3,2.12,2.12,0,0,0,.29.34s.09,0,.13,0,.05,0,.08-.08,0,0,0,0,.06,0,.09,0a.19.19,0,0,1,0,.15.29.29,0,0,1-.14.17.2.2,0,0,1-.2,0,1.07,1.07,0,0,1-.36-.38C38,185.3,37.85,185.21,37.77,185.26Z"/><path class="cls-91" d="M38.9,184.15l.22-.17.17-.12c.06,0,.1-.07.13-.06s0,0,.06,0,0,.14-.07.19l-.3.23a.59.59,0,0,0-.14.13,2.53,2.53,0,0,0,.1.34c.08.2.13.34.16.39s.11.15.15.15a.11.11,0,0,0,.13,0c.07,0,.13-.14.19-.33a.3.3,0,0,1,.07-.13s.06,0,.09,0a.47.47,0,0,1,0,.32.65.65,0,0,1-.25.36c-.2.12-.37.06-.51-.16a2.93,2.93,0,0,1-.18-.43,1.91,1.91,0,0,0-.14-.35s0,0,0,0l-.12.09c-.11.07-.18.06-.23,0a.08.08,0,0,1,0-.12l.25-.15a0,0,0,0,0,0,0,.88.88,0,0,0,0-.19l-.09-.3c0-.1,0-.16,0-.2a.12.12,0,0,1,.1,0,.11.11,0,0,1,.08.05l.06.2Z"/><path class="cls-91" d="M41.1,183.9a.55.55,0,0,1,0,.43.92.92,0,0,1-.34.46.47.47,0,0,1-.37.07.54.54,0,0,1-.31-.26,1.32,1.32,0,0,1-.18-.8.79.79,0,0,1,.32-.63.23.23,0,0,1,.18,0,.24.24,0,0,1,.15.1.57.57,0,0,1,0,.47,2.82,2.82,0,0,1-.28.65.11.11,0,0,0,0,.12.31.31,0,0,0,.16.12.28.28,0,0,0,.21,0,.92.92,0,0,0,.35-.62.22.22,0,0,1,0-.08S41.07,183.86,41.1,183.9Zm-1,.33c.21-.41.28-.68.2-.81s-.07-.06-.11,0-.12.14-.15.31A1.05,1.05,0,0,0,40.15,184.23Z"/><path class="cls-91" d="M41.85,182.71a.27.27,0,0,0-.09.17,3.06,3.06,0,0,0,0,.51,3,3,0,0,1,0,.6c0,.06,0,.1-.06.11a.15.15,0,0,1-.23,0l-.08-.17a5.22,5.22,0,0,0-.42-.81.25.25,0,0,1,0-.13.16.16,0,0,1,0-.11.15.15,0,0,1,.11,0,.4.4,0,0,1,.13.15,4.11,4.11,0,0,1,.24.54,1.7,1.7,0,0,0,.07.18h0a1.17,1.17,0,0,0,0-.39,2.1,2.1,0,0,1,0-.58.35.35,0,0,1,.17-.27.23.23,0,0,1,.24,0,.93.93,0,0,1,.33.3,2.39,2.39,0,0,0,.29.33.11.11,0,0,0,.13,0,.38.38,0,0,0,.08-.09h0s.06,0,.09,0a.19.19,0,0,1,0,.15.32.32,0,0,1-.14.17.2.2,0,0,1-.2,0,1.31,1.31,0,0,1-.36-.38C42,182.76,41.92,182.67,41.85,182.71Z"/><path class="cls-91" d="M43,181.61l.22-.17.18-.13.12-.06s0,0,.06.05,0,.13-.06.19a1.92,1.92,0,0,0-.31.23c-.09.07-.14.11-.14.13s0,.12.11.33a3.1,3.1,0,0,0,.16.4c0,.08.1.14.15.15a.13.13,0,0,0,.13,0c.07,0,.13-.15.19-.34a.22.22,0,0,1,.07-.13.05.05,0,0,1,.08,0c0,.06,0,.17,0,.33a.64.64,0,0,1-.26.35c-.19.12-.36.07-.5-.16a1.77,1.77,0,0,1-.18-.42c-.07-.19-.12-.31-.14-.35h0l-.12.09c-.1.06-.18.06-.23,0a.08.08,0,0,1,0-.12l.25-.15s0,0,0-.05a.88.88,0,0,0,0-.19,2.64,2.64,0,0,0-.1-.3c0-.1,0-.16,0-.19a.12.12,0,0,1,.1,0,.13.13,0,0,1,.07.05,1.57,1.57,0,0,1,.07.2Z"/><polygon class="cls-90" points="86.23 185.74 86.67 186.12 86.79 186.12 86.21 185.55 86.23 185.74"/><polygon class="cls-90" points="85.8 185.13 86.21 185.55 86.03 183.25 85.8 185.13"/><polygon class="cls-90" points="85.94 182.09 86.03 183.25 86.18 182.08 85.94 182.09"/><path class="cls-90" d="M164.56,183.51l-16.74.42-.36-.3.65.69,16.74-.43.36-2.3c.24-.25,0-.41-.07-.34m0,.43s0,0,0,0Z"/><path class="cls-90" d="M94.49,179l.65,1,1.3-1.53-1.19,0L95,175l.84-.87L115,173.3l.1,3.76-1,.49,1.29,1.89.15-6.09,19.94-.72.12,4.39h-.6l.78,1.58.71-1.62h-.45l-.12-4.24,18.71-.63-.17-.49-30.07,1.29,0-4.39,19.42-.8.84-.8L144,158l-.95-.84-38.24,1.47-1.37,1.68,0,8,1.17,1,19.42-.8,0,4.45-9.74.15.13,0-18.66.73-.92.94.21,3.72-.67,0Zm22.4-10.47-12.34.3-.59-.53,1-9.35,37.28-1.42L143.8,159l.57,7.44-.76.73-18.67.74V168Z"/><polygon class="cls-90" points="155.14 176.44 156.06 177.96 156.62 176.33 156.1 176.47 155.43 174.58 155.51 176.38 155.14 176.44"/><polygon class="cls-90" points="155.31 172.06 154.54 172.09 155.43 174.58 155.31 172.06"/><polygon class="cls-90" points="146.8 179.9 146.9 181.04 147.01 179.89 146.8 179.9"/><polygon class="cls-90" points="147.09 183.32 147.46 183.63 147.09 183.23 147.09 183.32"/><polygon class="cls-90" points="146.73 182.87 147.09 183.23 146.9 181.04 146.73 182.87"/><polygon class="cls-90" points="165.1 179.51 164.75 179.52 165.14 181.25 165.1 179.51"/><polygon class="cls-90" points="164.66 179.13 147.03 179.6 147.01 179.89 164.75 179.52 164.66 179.13"/><polygon class="cls-90" points="104.38 182.08 103.81 181.1 86.25 181.5 86.18 182.08 103.95 181.48 104.24 184.98 103.63 185.63 86.79 186.12 87.03 186.35 103.84 185.94 104.6 185.14 104.38 182.08"/><polygon class="cls-90" points="135.8 186.1 130.45 186.27 129.84 186.93 129.83 187.15 129.24 187.06 130.16 189.02 130.8 186.95 130.36 186.86 130.29 186.71 136.32 186.38 136.35 184.93 136.88 184.56 144.24 184.44 144.38 184.3 135.65 184.44 135.8 186.1"/><polygon class="cls-90" points="144.4 184.3 144.4 184.28 144.38 184.3 144.4 184.3"/><polygon class="cls-90" points="144.21 179.68 126.95 179.94 126.86 184.65 126.86 184.65 126.86 184.65 126.86 184.65 126.86 184.65 127.51 184.64 135.64 184.44 126.86 184.65 127.09 180.47 144.2 180.13 144.4 184.28 145 183.64 144.21 179.68"/><polygon class="cls-90" points="147.16 186.74 147.79 188.32 148.65 186.78 148.12 187.28 147.64 186.27 147.68 186.75 147.16 186.74"/><polygon class="cls-90" points="147.62 186.08 136.32 186.38 136.32 186.41 147.64 186.27 147.62 186.08"/><polygon class="cls-90" points="124.01 185.13 123.99 185.15 124.01 185.15 124.01 185.13"/><polygon class="cls-90" points="123.82 180.54 106.57 180.8 106.47 185.5 106.47 185.5 106.47 185.5 106.47 185.5 106.47 185.5 107.12 185.49 115.31 185.32 106.47 185.5 106.7 181.32 123.81 180.98 124.01 185.13 124.61 184.5 123.82 180.54"/><path class="cls-90" d="M116.49,185.42l7.36-.12.14-.15-8.68.17.34,10.33-5.35.18-.61.65v.22l-.6-.08.75,1.58-4.86.09-.53,3.63h10.16l-.48-3.79-4,.07.53-1.69-.45-.09-.07-.15,6.1-.33L116,185.78Zm-2.94,13,.42,3.31H105.1l.47-3.17,4.38-.07.06.14,0-.15Z"/><polygon class="cls-90" points="127.49 195.81 127.47 195.64 116.24 195.94 116.24 195.97 127.49 195.81"/><polygon class="cls-90" points="127.64 197.88 128.44 196.54 128.04 196.85 127.49 195.81 127.53 196.31 127.01 196.3 127.64 197.88"/><path class="cls-90" d="M125.86,189.17l-.53,3.63h10.16L135,189Zm.12,3.39.46-3.16,8-.14.43,3.3Z"/><path class="cls-90" d="M143.43,189.17l-.53,3.63h10.16l-.48-3.78Zm.12,3.39.47-3.16,8-.14.42,3.3Z"/><path class="cls-90" d="M123.55,198.29l-.53,3.63h10.16l-.48-3.79Zm.12,3.39.47-3.17,8-.14.42,3.31Z"/><path class="cls-91" d="M129.05,190.82a.37.37,0,0,0-.24.11,1.39,1.39,0,0,0-.24.31s0-.06,0-.15a1.41,1.41,0,0,0,0-.18.13.13,0,0,0,0-.08s0,0,0,0a.08.08,0,0,0-.07,0s0,.06,0,.12V191a4.42,4.42,0,0,1-.14,1,.28.28,0,0,0,0,.11s0,0,0,0a.06.06,0,0,0,0,0l0,0a.09.09,0,0,0,0-.06l0-.15a3.62,3.62,0,0,1,.07-.39.18.18,0,0,0,.06.08.08.08,0,0,0,.07,0,.51.51,0,0,0,.37-.2.65.65,0,0,0,.19-.45.2.2,0,0,0,0-.15A.25.25,0,0,0,129.05,190.82Zm-.09.57c-.1.11-.18.16-.26.16l-.08,0a.09.09,0,0,1,0-.06.64.64,0,0,1,.16-.31c.11-.14.2-.2.27-.2l.06,0a.29.29,0,0,1,0,.09A.53.53,0,0,1,129,191.39Z"/><path class="cls-91" d="M130.12,191.58s-.07-.1-.07-.23a2.12,2.12,0,0,1,0-.32V191s0-.05-.06-.05,0,0,0,0a.09.09,0,0,0-.09-.07.47.47,0,0,0-.36.23.72.72,0,0,0-.18.44.16.16,0,0,0,0,.12.14.14,0,0,0,.1,0,.35.35,0,0,0,.19-.06.77.77,0,0,0,.22-.22.47.47,0,0,0,0,.23.09.09,0,0,0,.09.07.11.11,0,0,0,.07,0l0,0S130.15,191.59,130.12,191.58Zm-.32-.21c-.1.11-.18.17-.23.17s-.06,0-.06-.09a.62.62,0,0,1,.14-.31c.08-.13.16-.19.23-.19s.07,0,.07.11A.49.49,0,0,1,129.8,191.37Z"/><path class="cls-91" d="M131.05,190.89h0a.21.21,0,0,0-.11,0,.59.59,0,0,0-.29.11.88.88,0,0,0-.25.26.48.48,0,0,0-.09.26.21.21,0,0,0,0,.12.15.15,0,0,0,.11,0,.41.41,0,0,0,.2-.06.86.86,0,0,0,.18-.14.17.17,0,0,1,.05-.05s0,.07,0,.11a1.4,1.4,0,0,1-.09.4.2.2,0,0,1-.19.13.61.61,0,0,1-.33-.12l-.08,0a0,0,0,0,0,0,0s.05.1.14.16a.48.48,0,0,0,.29.1.34.34,0,0,0,.16,0,.44.44,0,0,0,.13-.14.71.71,0,0,0,.08-.18c0-.07,0-.16,0-.28a1.31,1.31,0,0,1,0-.28,1.43,1.43,0,0,1,.06-.21s0,0,0,0,0,0,0-.05Zm-.2.35a.59.59,0,0,1-.18.2.34.34,0,0,1-.18.06s0,0,0,0,0,0,0,0a.46.46,0,0,1,.09-.22.68.68,0,0,1,.19-.19.25.25,0,0,1,.16-.06s.06,0,.06.08A.35.35,0,0,1,130.85,191.24Z"/><path class="cls-91" d="M131.82,191.39a.46.46,0,0,1-.33.18.24.24,0,0,1-.11,0,.15.15,0,0,1,0-.11.07.07,0,0,1,0-.05,1.38,1.38,0,0,0,.31-.22.29.29,0,0,0,.12-.23.09.09,0,0,0,0-.08.1.1,0,0,0-.09,0,.38.38,0,0,0-.32.19.7.7,0,0,0-.15.42.3.3,0,0,0,.06.2.25.25,0,0,0,.19.07.46.46,0,0,0,.29-.1c.09-.08.14-.14.14-.19s0,0,0,0Zm-.34-.36c.06-.07.11-.11.16-.11s0,0,0,.05-.11.18-.32.31A.53.53,0,0,1,131.48,191Z"/><path class="cls-91" d="M132.74,191.41l-.17,0a1.32,1.32,0,0,1,0-.21,4.21,4.21,0,0,1,.09-.5.06.06,0,0,0,0-.05.15.15,0,0,0,0-.06s0,0,0,0l-.15.09-.24.13a.27.27,0,0,0-.11.05s0,0,0,0,0,.05,0,.05a.42.42,0,0,0,.25-.1.28.28,0,0,1,.12-.05l0,.32a2.12,2.12,0,0,0,0,.33.8.8,0,0,1-.2.06l-.12,0s-.07,0-.07.07l0,0a.07.07,0,0,0,.06,0l.13,0,.09,0,.08,0,0,0,0,0c.07,0,.1,0,.1,0v-.05a.56.56,0,0,1,.2,0l.15,0,.05,0s0,0,0,0a.39.39,0,0,0,0-.06Z"/><path class="cls-91" d="M147.15,190.82a.33.33,0,0,0-.24.11,1,1,0,0,0-.24.31.69.69,0,0,1,0-.15,1.21,1.21,0,0,0,0-.18s0-.07,0-.08l0,0a.08.08,0,0,0-.07,0,.17.17,0,0,0,0,.12V191a3.91,3.91,0,0,1-.14,1,.89.89,0,0,0,0,.11s0,0,0,0a.07.07,0,0,0,.06,0l0,0,0-.06,0-.15a2.14,2.14,0,0,1,.07-.39l.05.08a.08.08,0,0,0,.07,0,.51.51,0,0,0,.38-.2.65.65,0,0,0,.19-.45.25.25,0,0,0-.05-.15A.28.28,0,0,0,147.15,190.82Zm-.1.57a.36.36,0,0,1-.25.16l-.08,0a.09.09,0,0,1,0-.06.56.56,0,0,1,.16-.31c.1-.14.19-.2.27-.2l0,0a.15.15,0,0,1,0,.09A.48.48,0,0,1,147.05,191.39Z"/><path class="cls-91" d="M148.22,191.58c-.05,0-.07-.1-.07-.23a1.78,1.78,0,0,1,0-.32.13.13,0,0,0,0-.06s0-.05-.06-.05,0,0,0,0a.1.1,0,0,0-.1-.07.47.47,0,0,0-.36.23.78.78,0,0,0-.18.44.17.17,0,0,0,.05.12.14.14,0,0,0,.1,0,.38.38,0,0,0,.19-.06.89.89,0,0,0,.21-.22.63.63,0,0,0,0,.23s.06.07.1.07a.07.07,0,0,0,.06,0l0,0A0,0,0,0,0,148.22,191.58Zm-.32-.21c-.1.11-.18.17-.24.17s0,0,0-.09a.59.59,0,0,1,.13-.31c.09-.13.17-.19.24-.19s.07,0,.07.11A.49.49,0,0,1,147.9,191.37Z"/><path class="cls-91" d="M149.15,190.89h0a.28.28,0,0,0-.12,0,.56.56,0,0,0-.28.11.77.77,0,0,0-.25.26.48.48,0,0,0-.09.26.16.16,0,0,0,0,.12.14.14,0,0,0,.11,0,.41.41,0,0,0,.2-.06.86.86,0,0,0,.18-.14s0-.05.05-.05,0,.07,0,.11a1.16,1.16,0,0,1-.08.4.21.21,0,0,1-.19.13.61.61,0,0,1-.33-.12l-.08,0a0,0,0,0,0,0,0s0,.1.14.16a.46.46,0,0,0,.28.1.29.29,0,0,0,.16,0A.38.38,0,0,0,149,192a.71.71,0,0,0,.08-.18c0-.07,0-.16,0-.28s0-.22,0-.28a.85.85,0,0,1,.07-.21v0a.09.09,0,0,0,0-.05A.17.17,0,0,1,149.15,190.89Zm-.2.35a.52.52,0,0,1-.19.2.29.29,0,0,1-.18.06,0,0,0,0,1,0,0,.06.06,0,0,1,0,0,.41.41,0,0,1,.1-.22.83.83,0,0,1,.18-.19A.27.27,0,0,1,149,191s.06,0,.06.08A.43.43,0,0,1,149,191.24Z"/><path class="cls-91" d="M149.92,191.39a.48.48,0,0,1-.34.18.24.24,0,0,1-.1,0,.15.15,0,0,1,0-.11.05.05,0,0,1,0-.05,1.66,1.66,0,0,0,.31-.22.29.29,0,0,0,.12-.23.12.12,0,0,0,0-.08.11.11,0,0,0-.09,0,.41.41,0,0,0-.33.19.68.68,0,0,0-.14.42.3.3,0,0,0,.06.2.25.25,0,0,0,.19.07.46.46,0,0,0,.29-.1c.09-.08.14-.14.14-.19s0,0,0,0Zm-.34-.36a.22.22,0,0,1,.16-.11,0,0,0,0,1,0,.05c0,.08-.11.18-.33.31A.66.66,0,0,1,149.58,191Z"/><path class="cls-91" d="M151.09,191.45l-.05,0h-.13l-.33,0h-.12a1.23,1.23,0,0,0,.34-.28.56.56,0,0,0,.16-.29s0,0,0-.07a.57.57,0,0,0-.1-.13.21.21,0,0,0-.15-.07.33.33,0,0,0-.15,0,.31.31,0,0,0-.12,0l-.13.09-.08.06v0s0,0,0,.06,0,0,0,0a.13.13,0,0,0,.09,0,.56.56,0,0,1,.14-.1.35.35,0,0,1,.14-.07.17.17,0,0,1,.12.06.15.15,0,0,1,.06.11.51.51,0,0,1,0,.09l-.07.1a.79.79,0,0,1-.13.14l-.11.1-.11.06a1.53,1.53,0,0,0-.23.15.18.18,0,0,0-.06.14.06.06,0,0,0,.06.06l0,0,.06-.05a.3.3,0,0,1,.13-.07.88.88,0,0,1,.24,0,1,1,0,0,1,.26,0H151a.16.16,0,0,0,.09,0s0,0,0-.07,0,0,0,0S151.1,191.45,151.09,191.45Z"/><path class="cls-91" d="M107.56,199.73a.42.42,0,0,0-.24.11,1.39,1.39,0,0,0-.24.31s0-.06,0-.15a1.41,1.41,0,0,0,0-.18.19.19,0,0,0,0-.08s0,0,0,0a.1.1,0,0,0-.08,0,.14.14,0,0,0,0,.12v.06a4.27,4.27,0,0,1-.14,1,.32.32,0,0,0,0,.12s0,0,0,0a.06.06,0,0,0,0,0l0,0a.09.09,0,0,0,0-.06l0-.15c0-.17,0-.29.07-.39a.35.35,0,0,0,.06.09l.07,0a.51.51,0,0,0,.37-.21.61.61,0,0,0,.19-.45.17.17,0,0,0,0-.14A.18.18,0,0,0,107.56,199.73Zm-.09.57c-.1.11-.18.16-.26.16a.11.11,0,0,1-.08,0,.07.07,0,0,1,0-.06.64.64,0,0,1,.16-.31c.11-.14.2-.2.27-.2l.06,0a.2.2,0,0,1,0,.09A.48.48,0,0,1,107.47,200.3Z"/><path class="cls-91" d="M108.64,200.49s-.08-.1-.08-.23a2,2,0,0,1,0-.31v-.07s0,0-.06,0,0,0,0,0a.1.1,0,0,0-.1-.07.5.5,0,0,0-.35.23.68.68,0,0,0-.18.44.2.2,0,0,0,0,.13.14.14,0,0,0,.1.05.28.28,0,0,0,.19-.08.84.84,0,0,0,.22-.21.67.67,0,0,0,0,.23c0,.05.06.08.1.08l.07,0s0,0,0-.05A.05.05,0,0,0,108.64,200.49Zm-.33-.2c-.1.11-.18.17-.23.17s-.06,0-.06-.09a.58.58,0,0,1,.13-.32q.13-.18.24-.18s.07,0,.07.1A.51.51,0,0,1,108.31,200.29Z"/><path class="cls-91" d="M109.56,199.81l0,0a.2.2,0,0,0-.11,0,.46.46,0,0,0-.28.11.67.67,0,0,0-.25.25.54.54,0,0,0-.09.27.16.16,0,0,0,0,.12.15.15,0,0,0,.1,0,.39.39,0,0,0,.2-.06.71.71,0,0,0,.18-.15s0-.05,0,0a.41.41,0,0,1,0,.1.94.94,0,0,1-.09.4.2.2,0,0,1-.19.13.51.51,0,0,1-.32-.12l-.09,0s0,0,0,0,0,.1.14.16a.44.44,0,0,0,.28.1.47.47,0,0,0,.16,0,.35.35,0,0,0,.13-.14.46.46,0,0,0,.08-.19,1.3,1.3,0,0,0,0-.27c0-.13,0-.23,0-.28a1.43,1.43,0,0,1,.06-.21v0a.09.09,0,0,0,0-.05S109.57,199.81,109.56,199.81Zm-.2.35a.58.58,0,0,1-.19.19.32.32,0,0,1-.17.07l0,0a.09.09,0,0,1,0-.05.42.42,0,0,1,.09-.22.73.73,0,0,1,.19-.2.32.32,0,0,1,.16-.06s.06,0,.06.09A.37.37,0,0,1,109.36,200.16Z"/><path class="cls-91" d="M109.72,200.34a.32.32,0,0,0,.06.2.25.25,0,0,0,.19.07.42.42,0,0,0,.29-.11c.09-.07.14-.13.14-.19a0,0,0,0,0,0,0,0,0,0,0,0,0,0,.5.5,0,0,1-.34.18.18.18,0,0,1-.11,0,.21.21,0,0,1,0-.11.07.07,0,0,1,0-.05,1.38,1.38,0,0,0,.31-.21.33.33,0,0,0,.12-.23.14.14,0,0,0-.13-.13.4.4,0,0,0-.33.2A.73.73,0,0,0,109.72,200.34Zm.27-.4a.22.22,0,0,1,.16-.1s0,0,0,0-.11.19-.33.32A.71.71,0,0,1,110,199.94Z"/><path class="cls-91" d="M111,200.38l-.2.06-.12,0s-.07,0-.07.07l0,0a.07.07,0,0,0,.06,0l.13,0,.09,0,.08,0,0,0,0,0c.07,0,.1,0,.1,0v-.05a.79.79,0,0,1,.2,0l.15,0,0,0s0,0,0,0a.25.25,0,0,0,0-.07l-.24,0-.17,0a1.32,1.32,0,0,1,0-.21,4.21,4.21,0,0,1,.09-.5s0,0,0,0a.2.2,0,0,0,0-.07s0,0-.05,0l-.15.09-.24.13-.11,0s0,0,0,0,0,0,0,0a.48.48,0,0,0,.25-.09.22.22,0,0,1,.12-.06l0,.32A2.12,2.12,0,0,0,111,200.38Z"/><path class="cls-91" d="M126.57,199.73a.37.37,0,0,0-.23.11,1,1,0,0,0-.24.31.69.69,0,0,1,0-.15,1.21,1.21,0,0,0,0-.18.19.19,0,0,0,0-.08l0,0a.08.08,0,0,0-.07,0,.17.17,0,0,0,0,.12v.06a4.27,4.27,0,0,1-.14,1,1,1,0,0,0,0,.12s0,0,0,0a.06.06,0,0,0,.05,0l0,0a.14.14,0,0,0,0-.06l0-.15a2.32,2.32,0,0,1,.07-.39.36.36,0,0,0,.05.09l.07,0a.55.55,0,0,0,.38-.21.65.65,0,0,0,.19-.45.22.22,0,0,0-.05-.14A.2.2,0,0,0,126.57,199.73Zm-.09.57c-.1.11-.18.16-.25.16s-.06,0-.08,0a.07.07,0,0,1,0-.06.6.6,0,0,1,.15-.31c.11-.13.2-.2.27-.2a.09.09,0,0,1,.06,0,.2.2,0,0,1,0,.09A.48.48,0,0,1,126.48,200.3Z"/><path class="cls-91" d="M127.65,200.49c-.05,0-.07-.1-.07-.23a1.7,1.7,0,0,1,0-.31s0,0,0-.07,0,0-.06,0,0,0,0,0a.09.09,0,0,0-.09-.07.5.5,0,0,0-.36.23.74.74,0,0,0-.18.44.28.28,0,0,0,0,.13.16.16,0,0,0,.11.05.3.3,0,0,0,.19-.08.69.69,0,0,0,.21-.21.47.47,0,0,0,0,.23.12.12,0,0,0,.09.08l.07,0s0,0,0-.05A.05.05,0,0,0,127.65,200.49Zm-.32-.2c-.1.11-.18.17-.24.17s-.06,0-.06-.09a.61.61,0,0,1,.14-.32c.09-.12.16-.18.23-.18s.07,0,.07.1A.49.49,0,0,1,127.33,200.29Z"/><path class="cls-91" d="M128.57,199.81l0,0a.2.2,0,0,0-.11,0,.46.46,0,0,0-.28.11.75.75,0,0,0-.25.25.54.54,0,0,0-.09.27.16.16,0,0,0,0,.12.15.15,0,0,0,.1,0,.45.45,0,0,0,.21-.06.86.86,0,0,0,.17-.15s0-.05.06,0a.87.87,0,0,0,0,.1.94.94,0,0,1-.09.4.19.19,0,0,1-.19.13.53.53,0,0,1-.32-.12l-.09,0s0,0,0,0,0,.1.14.16a.44.44,0,0,0,.28.1.47.47,0,0,0,.16,0,.35.35,0,0,0,.13-.14.46.46,0,0,0,.08-.19,1.3,1.3,0,0,0,0-.27,2.26,2.26,0,0,1,0-.28,1.43,1.43,0,0,1,.06-.21v0a.09.09,0,0,0,0-.05S128.58,199.81,128.57,199.81Zm-.19.35a.69.69,0,0,1-.19.19.32.32,0,0,1-.18.07l0,0s0,0,0-.05a.42.42,0,0,1,.09-.22.92.92,0,0,1,.19-.2.32.32,0,0,1,.16-.06c.05,0,.07,0,.07.09A.48.48,0,0,1,128.38,200.16Z"/><path class="cls-91" d="M129.35,200.3a.52.52,0,0,1-.34.19.18.18,0,0,1-.11,0,.15.15,0,0,1,0-.1.05.05,0,0,1,0-.06,1.66,1.66,0,0,0,.31-.21.33.33,0,0,0,.11-.23.16.16,0,0,0,0-.09.18.18,0,0,0-.1,0,.41.41,0,0,0-.32.2.67.67,0,0,0-.15.41.28.28,0,0,0,.07.21.24.24,0,0,0,.19.07.45.45,0,0,0,.28-.11c.09-.07.14-.14.14-.19s0,0,0,0S129.37,200.28,129.35,200.3Zm-.35-.36a.22.22,0,0,1,.16-.1s0,0,0,0-.11.19-.32.32A.57.57,0,0,1,129,199.94Z"/><path class="cls-91" d="M130.52,200.37h-.63a1.28,1.28,0,0,0,.34-.29.53.53,0,0,0,.15-.29l0-.07a.91.91,0,0,0-.1-.13.24.24,0,0,0-.15-.06l-.15,0-.12.06-.13.09-.08.06v0a.09.09,0,0,0,0,.05l0,0a.13.13,0,0,0,.09,0,.61.61,0,0,1,.14-.11.3.3,0,0,1,.14-.06.22.22,0,0,1,.12.06.14.14,0,0,1,.06.11.31.31,0,0,1,0,.08.49.49,0,0,1-.07.11.9.9,0,0,1-.14.14l-.11.1-.11.06-.22.14a.22.22,0,0,0-.06.15s0,0,.06,0h0l0,0a.45.45,0,0,1,.14-.07.88.88,0,0,1,.24,0,1,1,0,0,1,.26,0h.14l.09,0a.08.08,0,0,0,.05-.08,0,0,0,0,0,0,0Z"/><path class="cls-91" d="M118.21,164a1.72,1.72,0,0,0,.05.43s0,.06,0,.08,0,.07-.08.11a.27.27,0,0,1-.18.07c-.16,0-.25-.15-.25-.44a8.83,8.83,0,0,1,.2-1.47,3.84,3.84,0,0,0,.06-.43.6.6,0,0,1,.06-.27.18.18,0,0,1,.16-.11.33.33,0,0,1,.21.06.19.19,0,0,1,.07.14.81.81,0,0,1,0,.2,8.59,8.59,0,0,0-.24,1A4.52,4.52,0,0,0,118.21,164Zm.32-2.81s-.06,0-.08-.11a.31.31,0,0,0,0-.08.6.6,0,0,1-.07-.27.29.29,0,0,1,.12-.21.39.39,0,0,1,.26-.1.29.29,0,0,1,.16.06c.07,0,.09.07.09.1a1.08,1.08,0,0,1-.06.28.38.38,0,0,1-.19.27A.57.57,0,0,1,118.53,161.17Z"/><path class="cls-91" d="M120.93,162.61a.39.39,0,0,0-.29.17,4.45,4.45,0,0,0-.47.77,5.71,5.71,0,0,1-.54.91.37.37,0,0,1-.2.11.27.27,0,0,1-.3-.29,1.77,1.77,0,0,1,0-.34,9.19,9.19,0,0,0,.14-1.61.43.43,0,0,1,.08-.21c.06-.08.11-.12.16-.12a.21.21,0,0,1,.18.08.62.62,0,0,1,.06.33,7,7,0,0,1-.15,1,2.35,2.35,0,0,0-.06.33s0,.05,0,.05a3.75,3.75,0,0,0,.35-.61,3.89,3.89,0,0,1,.55-.86.7.7,0,0,1,.52-.24.43.43,0,0,1,.37.2,1.86,1.86,0,0,1,.2.75,4.07,4.07,0,0,0,.13.77c0,.11.1.16.18.16a.49.49,0,0,0,.2-.06h0c.07,0,.1,0,.1.12a.33.33,0,0,1-.15.23.48.48,0,0,1-.35.13.39.39,0,0,1-.33-.17,2.42,2.42,0,0,1-.19-.91C121.17,162.85,121.07,162.61,120.93,162.61Z"/><path class="cls-91" d="M124.43,163.5a3.17,3.17,0,0,1-.71.83,1.17,1.17,0,0,1-.7.3.46.46,0,0,1-.38-.19.76.76,0,0,1-.15-.5,2.19,2.19,0,0,1,.52-1.3,1.43,1.43,0,0,1,1.11-.67.67.67,0,0,1,.49.22l.35-1.64a.33.33,0,0,1,.14-.23.35.35,0,0,1,.16-.06c.12,0,.18.1.18.31a2.9,2.9,0,0,1-.12.41,12.54,12.54,0,0,0-.35,1.36,7.56,7.56,0,0,0-.16,1.29c0,.34.07.51.22.51a.59.59,0,0,0,.29-.1.21.21,0,0,1,.12,0s.08,0,.08.11-.08.19-.23.29a.72.72,0,0,1-.46.18c-.27,0-.41-.27-.41-.81A2.35,2.35,0,0,1,124.43,163.5Zm-.33-1.18a1.09,1.09,0,0,0-.81.56,1.79,1.79,0,0,0-.4,1c0,.21.07.32.21.32a.88.88,0,0,0,.48-.21,2.37,2.37,0,0,0,.57-.65,1.42,1.42,0,0,0,.3-.68.36.36,0,0,0-.1-.23A.32.32,0,0,0,124.1,162.32Z"/><path class="cls-91" d="M128.18,163.69c0,.17-.15.38-.45.62a1.52,1.52,0,0,1-.94.36.78.78,0,0,1-.62-.24.93.93,0,0,1-.22-.67,2.24,2.24,0,0,1,.48-1.36,1.33,1.33,0,0,1,1.06-.65.41.41,0,0,1,.31.12.42.42,0,0,1,.12.3,1,1,0,0,1-.38.74,4.3,4.3,0,0,1-1,.69.23.23,0,0,0-.13.18.49.49,0,0,0,.12.34.51.51,0,0,0,.36.12,1.56,1.56,0,0,0,1.1-.6c.06,0,.1-.08.13-.08S128.18,163.6,128.18,163.69Zm-1.75-.39c.71-.43,1.07-.77,1.07-1s0-.15-.14-.15-.32.11-.52.34A2,2,0,0,0,126.43,163.3Z"/><path class="cls-91" d="M129.57,163.61a2.49,2.49,0,0,0-.76,1,1,1,0,0,1-.14.25c-.2,0-.3-.11-.3-.28s.29-.65.86-1.17l.12-.11a2.46,2.46,0,0,1-.5-1.15q0-.36.3-.36a.14.14,0,0,1,.13.07,1.63,1.63,0,0,1,.06.33,1.71,1.71,0,0,0,.34.85,3.59,3.59,0,0,0,.94-1.07.68.68,0,0,1,.13-.18.16.16,0,0,1,.12,0,.27.27,0,0,1,.17.06.26.26,0,0,1,.08.19c0,.16-.41.62-1.22,1.37a3.17,3.17,0,0,0,.89.81l.11.07s0,0,0,.07a.28.28,0,0,1-.07.19.25.25,0,0,1-.19.08C130.42,164.58,130.06,164.26,129.57,163.61Z"/><path class="cls-91" d="M91.83,184.7a1.5,1.5,0,0,1-.41.42.69.69,0,0,1-.37.14.23.23,0,0,1-.19-.1.33.33,0,0,1-.09-.25,1.45,1.45,0,0,1,.35-.84.91.91,0,0,1,.69-.44.19.19,0,0,1,.19.14.06.06,0,0,0,.06,0q.12,0,.12.09a1.05,1.05,0,0,1,0,.13,4.39,4.39,0,0,0-.08.61c0,.24,0,.39.14.43s.07.06.07.09a.15.15,0,0,1-.07.1.21.21,0,0,1-.12,0c-.08,0-.14-.06-.19-.16A1.19,1.19,0,0,1,91.83,184.7Zm-.09-.83c-.12,0-.28.12-.45.36a1.2,1.2,0,0,0-.26.61c0,.11,0,.17.11.17s.26-.11.46-.33a1,1,0,0,0,.29-.6Q91.89,183.87,91.74,183.87Z"/><path class="cls-91" d="M92.89,184.4a2,2,0,0,1,.45-.57.82.82,0,0,1,.48-.21.25.25,0,0,1,.2.1.46.46,0,0,1,.08.27,1.28,1.28,0,0,1-.35.86,1,1,0,0,1-.73.41.47.47,0,0,1-.2-.06.22.22,0,0,1-.1-.15.11.11,0,0,0,0-.1.22.22,0,0,1-.06-.14,4,4,0,0,1,.07-.57l.16-.89c.05-.3.09-.48.11-.56a.58.58,0,0,1,.08-.14.2.2,0,0,1,.11,0c.07,0,.11.06.11.17a1.38,1.38,0,0,1-.12.48A10.74,10.74,0,0,0,92.89,184.4Zm0,.49A.23.23,0,0,0,93,185a.61.61,0,0,0,.36-.15,1.16,1.16,0,0,0,.32-.39,1,1,0,0,0,.14-.43.29.29,0,0,0,0-.14s0-.06-.07-.06-.31.11-.5.34A2.16,2.16,0,0,0,92.85,184.89Z"/><path class="cls-91" d="M94.82,185.31a.43.43,0,0,1-.34-.15.6.6,0,0,1-.13-.38,1.34,1.34,0,0,1,.26-.76.74.74,0,0,1,.61-.37.49.49,0,0,1,.39.19.64.64,0,0,1,.15.43,1.06,1.06,0,0,1-.31.72A.88.88,0,0,1,94.82,185.31Zm-.21-.57a.43.43,0,0,0,.06.24.2.2,0,0,0,.17.1.6.6,0,0,0,.44-.24.78.78,0,0,0,.23-.54.49.49,0,0,0-.09-.3.28.28,0,0,0-.23-.11.5.5,0,0,0-.41.29A1.16,1.16,0,0,0,94.61,184.74Z"/><path class="cls-91" d="M97.15,184.6a2.33,2.33,0,0,1-.39.49.58.58,0,0,1-.37.18.27.27,0,0,1-.2-.12.49.49,0,0,1-.1-.35,2.67,2.67,0,0,1,.09-.57,2.44,2.44,0,0,0,.08-.44.14.14,0,0,1,.13-.09.13.13,0,0,1,.1,0,.14.14,0,0,1,0,.1.89.89,0,0,1-.07.29,2,2,0,0,0-.14.65c0,.16,0,.23.11.23s.22-.07.37-.24a2.06,2.06,0,0,0,.38-.68,1.46,1.46,0,0,1,.1-.23.13.13,0,0,1,.11-.05c.07,0,.1,0,.1.13a.43.43,0,0,1,0,.1,2.32,2.32,0,0,0-.09.62c0,.23,0,.38.12.44s.06.07.06.09a.09.09,0,0,1-.06.08l-.11,0c-.07,0-.13-.05-.17-.15a1.38,1.38,0,0,1-.06-.46v-.05A0,0,0,0,1,97.15,184.6Z"/><path class="cls-91" d="M98.55,183.74l.29,0,.23,0a.37.37,0,0,1,.14,0,.09.09,0,0,1,0,.07c0,.08-.06.13-.17.14l-.4,0-.19,0a2.52,2.52,0,0,0-.09.36,2.46,2.46,0,0,0-.07.43.37.37,0,0,0,0,.22.15.15,0,0,0,.13.06.71.71,0,0,0,.35-.19c.06-.06.1-.08.14-.08s.06,0,.06.07-.07.16-.21.27a.64.64,0,0,1-.42.17c-.24,0-.35-.14-.35-.42a2.27,2.27,0,0,1,.07-.48,2.4,2.4,0,0,0,.07-.38s0,0,0,0H98c-.12,0-.19-.05-.19-.15s0-.08.09-.08h.31s0,0,0,0a.57.57,0,0,0,.07-.19c0-.1.06-.21.08-.31s.07-.16.14-.16a.14.14,0,0,1,.1.05.15.15,0,0,1,0,.08,1.25,1.25,0,0,1-.06.21Z"/><path class="cls-91" d="M110,184.46a7.42,7.42,0,0,0-.14.75l0,.28a.21.21,0,0,1,0,.12s-.06.06-.08.06a.21.21,0,0,1-.11,0,.15.15,0,0,1-.06-.07,1.39,1.39,0,0,1,0-.23,8.16,8.16,0,0,0,.27-1.92v-.13a.35.35,0,0,1,.06-.23A.16.16,0,0,1,110,183s0,0,.07.05a.35.35,0,0,1,0,.16c0,.1,0,.21,0,.35a2.64,2.64,0,0,0,0,.3,2.15,2.15,0,0,1,.46-.6.72.72,0,0,1,.46-.22.3.3,0,0,1,.25.11.39.39,0,0,1,.11.28,1.28,1.28,0,0,1-.37.87,1,1,0,0,1-.72.4.2.2,0,0,1-.14,0S110,184.54,110,184.46Zm.92-1.19c-.14,0-.31.13-.51.4a1.12,1.12,0,0,0-.31.6.15.15,0,0,0,.06.11.25.25,0,0,0,.15.05c.14,0,.3-.11.49-.32a1,1,0,0,0,.28-.61.29.29,0,0,0,0-.17A.13.13,0,0,0,110.87,183.27Z"/><path class="cls-91" d="M111.93,184.05l0-.08a2.85,2.85,0,0,1,.19-.36,2.27,2.27,0,0,1,.18-.25,1,1,0,0,1,.19-.18.4.4,0,0,1,.15-.09.31.31,0,0,1,.13,0,.29.29,0,0,1,.21.08.24.24,0,0,1,.08.19.11.11,0,0,1,0,.08.13.13,0,0,1-.09,0,.17.17,0,0,1-.12-.06.17.17,0,0,0-.11-.06c-.1,0-.24.13-.42.38a1.69,1.69,0,0,0-.34.82c0,.08,0,.13,0,.15a.21.21,0,0,1-.12,0s-.08,0-.11-.11a1.48,1.48,0,0,1,0-.36c0-.05,0-.15,0-.31a3.93,3.93,0,0,1,0-.45,1.16,1.16,0,0,1,0-.29.24.24,0,0,1,.06-.09.2.2,0,0,1,.11,0,.11.11,0,0,1,.08,0,.11.11,0,0,1,0,.07.67.67,0,0,1,0,.17c0,.07,0,.13,0,.15a.41.41,0,0,1,0,.11,2.6,2.6,0,0,0,0,.33v.1Z"/><path class="cls-91" d="M113.61,184.71a.41.41,0,0,1-.34-.16.58.58,0,0,1-.13-.38,1.26,1.26,0,0,1,.26-.75.72.72,0,0,1,.61-.37.48.48,0,0,1,.39.18.66.66,0,0,1,.14.44,1,1,0,0,1-.3.71A.87.87,0,0,1,113.61,184.71Zm-.21-.57a.43.43,0,0,0,.06.24.22.22,0,0,0,.17.1.6.6,0,0,0,.44-.25.76.76,0,0,0,.23-.54.48.48,0,0,0-.09-.29.26.26,0,0,0-.23-.11.5.5,0,0,0-.41.29A1.13,1.13,0,0,0,113.4,184.14Z"/><path class="cls-91" d="M116,184a1.74,1.74,0,0,1-.42.49.71.71,0,0,1-.41.17.24.24,0,0,1-.22-.11.44.44,0,0,1-.09-.29,1.23,1.23,0,0,1,.31-.77.85.85,0,0,1,.65-.4.4.4,0,0,1,.29.14l.21-1a.2.2,0,0,1,.08-.13l.09,0c.07,0,.11.06.11.18a1.07,1.07,0,0,1-.07.25,8.09,8.09,0,0,0-.21.8,4.34,4.34,0,0,0-.09.76c0,.2,0,.3.13.3a.32.32,0,0,0,.17-.06.08.08,0,0,1,.07,0s0,0,0,.06,0,.11-.13.18a.5.5,0,0,1-.27.1q-.24,0-.24-.48A.86.86,0,0,1,116,184Zm-.19-.69a.63.63,0,0,0-.48.32,1,1,0,0,0-.23.6c0,.13,0,.19.12.19a.5.5,0,0,0,.28-.12,1.52,1.52,0,0,0,.34-.39.86.86,0,0,0,.18-.4.22.22,0,0,0-.21-.2Z"/><path class="cls-91" d="M117.94,184a1.68,1.68,0,0,1-.39.49.56.56,0,0,1-.37.18.26.26,0,0,1-.19-.12.49.49,0,0,1-.11-.35,2.26,2.26,0,0,1,.1-.57,2.44,2.44,0,0,0,.08-.44.14.14,0,0,1,.23-.05.18.18,0,0,1,0,.1,1,1,0,0,1-.08.29,1.91,1.91,0,0,0-.13.64c0,.16,0,.24.11.24a.58.58,0,0,0,.36-.24,1.9,1.9,0,0,0,.38-.68,1.24,1.24,0,0,1,.11-.23.11.11,0,0,1,.1-.06c.07,0,.1.05.1.14s0,0,0,.11a2.24,2.24,0,0,0-.09.6c0,.23,0,.39.11.45s.06.07.06.09a.09.09,0,0,1-.06.08l-.11,0c-.07,0-.12-.06-.17-.15a1.38,1.38,0,0,1-.06-.46V184Z"/><path class="cls-91" d="M119.15,184.72a.42.42,0,0,1-.34-.13.49.49,0,0,1-.12-.36,1.4,1.4,0,0,1,.31-.81c.2-.28.39-.43.57-.43a.26.26,0,0,1,.2.13.48.48,0,0,1,.09.27.22.22,0,0,1,0,.15s0,.07-.08.07-.09-.06-.12-.18-.06-.19-.11-.19-.23.12-.37.37a1.3,1.3,0,0,0-.21.62c0,.16.1.25.29.25a.92.92,0,0,0,.51-.21.31.31,0,0,1,.15-.07s.05,0,.05.06-.08.17-.26.29A1,1,0,0,1,119.15,184.72Z"/><path class="cls-91" d="M120.89,183.14l.29,0h.22c.07,0,.12,0,.14,0a.08.08,0,0,1,0,.07c0,.08-.06.12-.17.13l-.39,0c-.12,0-.19,0-.2,0a2.14,2.14,0,0,0-.09.35,2.52,2.52,0,0,0-.07.44.41.41,0,0,0,0,.22.17.17,0,0,0,.13.05.64.64,0,0,0,.35-.19.25.25,0,0,1,.14-.07.05.05,0,0,1,.06.06c0,.07-.07.16-.2.28a.69.69,0,0,1-.42.17c-.24,0-.36-.15-.36-.43a2.19,2.19,0,0,1,.07-.47,2.26,2.26,0,0,0,.07-.39s0,0,0,0l-.16,0c-.12,0-.19,0-.19-.15s0-.08.09-.08h.31a.09.09,0,0,0,0,0,.57.57,0,0,0,.07-.19c0-.1.06-.21.08-.31s.07-.16.14-.16a.12.12,0,0,1,.1.05.2.2,0,0,1,0,.08,1.25,1.25,0,0,1-.06.21Z"/><path class="cls-91" d="M122.45,184.29c0-.06-.07-.13-.23-.21a2.94,2.94,0,0,1-.41-.25.28.28,0,0,1-.11-.21.58.58,0,0,1,.3-.49,1,1,0,0,1,.48-.19.4.4,0,0,1,.18,0,.21.21,0,0,1,0,.15.09.09,0,0,1,0,.08l-.06,0-.06,0-.07,0a1,1,0,0,0-.3.11c-.15.07-.23.15-.23.24a.18.18,0,0,0,.09.15.94.94,0,0,0,.28.16,1,1,0,0,1,.27.18.26.26,0,0,1,.1.21c0,.15-.1.28-.31.36a1.51,1.51,0,0,1-.6.13c-.16,0-.24-.06-.24-.16a.1.1,0,0,1,.06-.09.2.2,0,0,1,.11,0l.08,0h.08a1.48,1.48,0,0,0,.35-.05C122.35,184.39,122.42,184.35,122.45,184.29Z"/><path class="cls-91" d="M130.31,183.22c0-.07-.08-.14-.24-.22a2.67,2.67,0,0,1-.4-.25.28.28,0,0,1-.11-.21.57.57,0,0,1,.3-.48.93.93,0,0,1,.48-.2.32.32,0,0,1,.17,0,.18.18,0,0,1,.06.15.12.12,0,0,1,0,.08l-.06,0-.07,0-.06,0a.78.78,0,0,0-.3.11c-.15.07-.23.15-.23.24a.21.21,0,0,0,.08.15,1.68,1.68,0,0,0,.29.16,1.59,1.59,0,0,1,.27.17.34.34,0,0,1,.1.22c0,.15-.11.27-.31.35a1.51,1.51,0,0,1-.6.13c-.16,0-.24-.05-.24-.16a.09.09,0,0,1,0-.08l.11,0,.09,0,.08,0a1.17,1.17,0,0,0,.35-.06A.43.43,0,0,0,130.31,183.22Z"/><path class="cls-91" d="M132.12,183.05c0,.11-.09.23-.27.37a.86.86,0,0,1-.55.21.46.46,0,0,1-.37-.14.57.57,0,0,1-.13-.39,1.34,1.34,0,0,1,.29-.81.79.79,0,0,1,.62-.39.29.29,0,0,1,.19.07.29.29,0,0,1,.07.18.62.62,0,0,1-.23.44,3.11,3.11,0,0,1-.6.41.1.1,0,0,0-.07.1.27.27,0,0,0,.07.2.27.27,0,0,0,.21.07A.91.91,0,0,0,132,183a.11.11,0,0,1,.07-.05S132.12,183,132.12,183.05Zm-1-.23q.63-.36.63-.6c0-.06,0-.09-.08-.09s-.19.07-.31.2A1.32,1.32,0,0,0,131.09,182.82Z"/><path class="cls-91" d="M132.73,183l0-.07a3.63,3.63,0,0,1,.19-.36,1.64,1.64,0,0,1,.19-.25,1.12,1.12,0,0,1,.18-.19l.16-.09.13,0a.32.32,0,0,1,.21.08.25.25,0,0,1,.08.18.14.14,0,0,1,0,.09.12.12,0,0,1-.09,0,.14.14,0,0,1-.11-.06.21.21,0,0,0-.11-.05c-.11,0-.25.12-.43.37a1.78,1.78,0,0,0-.33.82.27.27,0,0,1-.06.16.21.21,0,0,1-.12,0c-.05,0-.08,0-.1-.1a1.64,1.64,0,0,1,0-.37v-.31a4.16,4.16,0,0,1,0-.45s0-.06,0-.13a.91.91,0,0,1,0-.16.16.16,0,0,1,.06-.08.15.15,0,0,1,.11,0,.11.11,0,0,1,.08,0,.13.13,0,0,1,0,.08.61.61,0,0,1,0,.16.5.5,0,0,0,0,.16.52.52,0,0,1,0,.11,2.6,2.6,0,0,0,0,.33v.1Z"/><path class="cls-91" d="M134.39,183.58a1.61,1.61,0,0,0-.12-.45,3,3,0,0,1-.25-.93c0-.14,0-.21.14-.21s.14.06.14.19a1.42,1.42,0,0,0,0,.23,2.75,2.75,0,0,0,.07.3,4,4,0,0,0,.13.41c0,.06,0,.11.06.15l.08-.14c.17-.29.31-.52.41-.67s.19-.28.25-.35l.15-.14.09,0a.13.13,0,0,1,.09,0,.18.18,0,0,1,0,.1s-.05.1-.13.15a1.93,1.93,0,0,0-.33.39,6.25,6.25,0,0,0-.48.79c-.09.16-.16.24-.2.24S134.45,183.64,134.39,183.58Z"/><path class="cls-91" d="M136.05,183.23a1.21,1.21,0,0,0,0,.25.11.11,0,0,1,0,.05s0,0-.05.07a.25.25,0,0,1-.11,0c-.09,0-.14-.09-.14-.27a5.66,5.66,0,0,1,.11-.86,1.4,1.4,0,0,0,0-.25.25.25,0,0,1,0-.16.08.08,0,0,1,.09-.06.21.21,0,0,1,.12,0,.09.09,0,0,1,0,.08.3.3,0,0,1,0,.12,4,4,0,0,0-.13.56A2.25,2.25,0,0,0,136.05,183.23Zm.19-1.66s0,0,0-.06l0,0a.38.38,0,0,1,0-.17.15.15,0,0,1,.07-.12.25.25,0,0,1,.16-.06l.09,0a.1.1,0,0,1,.06.07.5.5,0,0,1,0,.16.23.23,0,0,1-.12.16A.24.24,0,0,1,136.24,181.57Z"/><path class="cls-91" d="M137.05,183.64a.45.45,0,0,1-.34-.12.52.52,0,0,1-.12-.36,1.35,1.35,0,0,1,.31-.81c.2-.29.39-.43.57-.43a.25.25,0,0,1,.2.13.46.46,0,0,1,.09.27.26.26,0,0,1,0,.15.09.09,0,0,1-.08.06s-.09-.06-.12-.18-.06-.18-.11-.18-.23.12-.37.36a1.3,1.3,0,0,0-.21.62c0,.17.1.25.29.25a1,1,0,0,0,.51-.2.31.31,0,0,1,.15-.07s.05,0,.05.05-.09.17-.26.29A1,1,0,0,1,137.05,183.64Z"/><path class="cls-91" d="M139.45,183.05c0,.11-.09.23-.27.37a.86.86,0,0,1-.55.21.46.46,0,0,1-.37-.14.57.57,0,0,1-.13-.39,1.34,1.34,0,0,1,.29-.81.79.79,0,0,1,.63-.39.29.29,0,0,1,.18.07.24.24,0,0,1,.07.18.62.62,0,0,1-.23.44,2.73,2.73,0,0,1-.59.41.11.11,0,0,0-.08.1.27.27,0,0,0,.07.2.28.28,0,0,0,.21.07.91.91,0,0,0,.65-.35.1.1,0,0,1,.08-.05A.08.08,0,0,1,139.45,183.05Zm-1-.23q.63-.36.63-.6c0-.06,0-.09-.08-.09a.47.47,0,0,0-.31.2A1.32,1.32,0,0,0,138.42,182.82Z"/><path class="cls-91" d="M140.51,183.22c0-.07-.08-.14-.24-.22a2.94,2.94,0,0,1-.41-.25.26.26,0,0,1-.1-.21.55.55,0,0,1,.29-.48,1,1,0,0,1,.48-.2.4.4,0,0,1,.18,0,.21.21,0,0,1,0,.15.09.09,0,0,1,0,.08.09.09,0,0,1-.06,0l-.06,0-.07,0a.78.78,0,0,0-.3.11c-.15.07-.22.15-.22.24a.18.18,0,0,0,.08.15,1.22,1.22,0,0,0,.28.16,1.59,1.59,0,0,1,.27.17.3.3,0,0,1,.1.22c0,.15-.1.27-.31.35a1.51,1.51,0,0,1-.6.13c-.16,0-.24-.05-.24-.16s0-.06.06-.08a.2.2,0,0,1,.11,0l.08,0,.08,0a1.12,1.12,0,0,0,.35-.06A.43.43,0,0,0,140.51,183.22Z"/><path class="cls-91" d="M151.89,182.81a.42.42,0,0,1-.34-.13.48.48,0,0,1-.12-.35,1.46,1.46,0,0,1,.3-.82c.21-.28.4-.43.58-.43a.26.26,0,0,1,.2.13.51.51,0,0,1,.09.27.22.22,0,0,1,0,.15s-.05.07-.08.07-.09-.07-.12-.18-.06-.19-.11-.19-.23.13-.37.37a1.3,1.3,0,0,0-.21.62c0,.16.1.25.29.25a1,1,0,0,0,.51-.2.27.27,0,0,1,.15-.08s0,0,0,.06-.08.17-.26.28A.93.93,0,0,1,151.89,182.81Z"/><path class="cls-91" d="M153.46,182.8a.41.41,0,0,1-.34-.16.53.53,0,0,1-.13-.38,1.32,1.32,0,0,1,.25-.75.75.75,0,0,1,.62-.37.45.45,0,0,1,.38.18.67.67,0,0,1,.15.44,1.07,1.07,0,0,1-.3.72A.92.92,0,0,1,153.46,182.8Zm-.21-.57a.43.43,0,0,0,.06.24.22.22,0,0,0,.17.1.63.63,0,0,0,.44-.25.75.75,0,0,0,.23-.53.47.47,0,0,0-.09-.3.28.28,0,0,0-.23-.11.5.5,0,0,0-.41.29A1.13,1.13,0,0,0,153.25,182.23Z"/><path class="cls-91" d="M155.75,181.58a.28.28,0,0,0-.17.1,2.45,2.45,0,0,0-.28.46,2.48,2.48,0,0,1-.32.53.17.17,0,0,1-.12.07.15.15,0,0,1-.17-.17s0-.11,0-.2a4.87,4.87,0,0,0,.08-1,.28.28,0,0,1,.05-.12c0-.05.06-.07.09-.07a.13.13,0,0,1,.11.05.41.41,0,0,1,0,.19,3.86,3.86,0,0,1-.08.62,1.29,1.29,0,0,0,0,.19s0,0,0,0a2.05,2.05,0,0,0,.21-.35,2.41,2.41,0,0,1,.32-.51.4.4,0,0,1,.31-.15.24.24,0,0,1,.21.12,1,1,0,0,1,.13.44,2.3,2.3,0,0,0,.07.46.11.11,0,0,0,.11.09l.11,0h0s.06,0,.06.07a.19.19,0,0,1-.08.15.31.31,0,0,1-.21.07.21.21,0,0,1-.2-.11,1.58,1.58,0,0,1-.11-.53C155.9,181.73,155.84,181.58,155.75,181.58Z"/><path class="cls-91" d="M157.35,181.23l.29,0a.94.94,0,0,1,.22,0c.08,0,.13,0,.15,0s0,0,0,.07-.06.12-.17.13l-.4,0a.46.46,0,0,0-.19,0,2.14,2.14,0,0,0-.09.35,2.78,2.78,0,0,0-.08.44.45.45,0,0,0,0,.21.16.16,0,0,0,.13.06.62.62,0,0,0,.36-.19c.06-.06.1-.08.13-.08a.06.06,0,0,1,.07.07q0,.1-.21.27a.63.63,0,0,1-.42.17q-.36,0-.36-.42a2.38,2.38,0,0,1,.08-.47c0-.22.07-.34.07-.39s0,0,0,0l-.15,0c-.13,0-.19,0-.19-.15a.08.08,0,0,1,.09-.09h.3l.06,0,.07-.19c0-.1.05-.22.08-.32s.07-.15.14-.15a.18.18,0,0,1,.1,0,.16.16,0,0,1,0,.09l-.05.21Z"/><path class="cls-91" d="M159.17,182.18a1.5,1.5,0,0,1-.41.42.63.63,0,0,1-.37.15.26.26,0,0,1-.2-.11.36.36,0,0,1-.08-.24,1.42,1.42,0,0,1,.35-.84.93.93,0,0,1,.69-.45.22.22,0,0,1,.19.14s0,.05.06.05.11,0,.11.09a.72.72,0,0,1,0,.13,4.48,4.48,0,0,0-.08.62c0,.23,0,.38.14.43a.1.1,0,0,1,.06.09.12.12,0,0,1-.06.09.27.27,0,0,1-.13.05c-.07,0-.14-.06-.18-.16A1.15,1.15,0,0,1,159.17,182.18Zm-.09-.83c-.13,0-.28.12-.45.37a1.07,1.07,0,0,0-.26.6c0,.12,0,.18.11.18s.26-.11.45-.33a1,1,0,0,0,.29-.61C159.22,181.42,159.18,181.35,159.08,181.35Z"/><path class="cls-91" d="M160.36,182.81a.42.42,0,0,1-.34-.13.48.48,0,0,1-.12-.35,1.46,1.46,0,0,1,.3-.82c.21-.28.4-.43.57-.43a.27.27,0,0,1,.21.13.51.51,0,0,1,.09.27.22.22,0,0,1,0,.15s-.05.07-.08.07-.09-.07-.12-.18-.06-.19-.12-.19-.22.13-.36.37a1.3,1.3,0,0,0-.21.62c0,.16.1.25.29.25a1,1,0,0,0,.51-.2.27.27,0,0,1,.15-.08s0,0,0,.06-.09.17-.26.28A.93.93,0,0,1,160.36,182.81Z"/><path class="cls-91" d="M162.1,181.23l.28,0a1,1,0,0,1,.22,0c.08,0,.13,0,.15,0s0,0,0,.07-.06.12-.17.13l-.4,0a.46.46,0,0,0-.19,0,2.14,2.14,0,0,0-.09.35,3,3,0,0,0-.08.44.34.34,0,0,0,.05.21.15.15,0,0,0,.13.06.64.64,0,0,0,.35-.19c.06-.06.1-.08.14-.08s.06,0,.06.07-.07.16-.21.27a.6.6,0,0,1-.42.17c-.23,0-.35-.14-.35-.42a2.19,2.19,0,0,1,.07-.47,2.43,2.43,0,0,0,.07-.39s0,0,0,0l-.16,0c-.12,0-.19,0-.19-.15a.08.08,0,0,1,.09-.09h.31l.05,0a.57.57,0,0,0,.07-.19c0-.1.06-.22.08-.32s.07-.15.14-.15a.13.13,0,0,1,.1,0,.12.12,0,0,1,0,.09l-.05.21Z"/><path class="cls-92" d="M185.38,142.2l-14.94,0,0,11,14.94.06a.73.73,0,0,0,.73-.73l0-9.57A.74.74,0,0,0,185.38,142.2Z"/><path class="cls-93" d="M167,142.14l-8.5,0a.71.71,0,0,0-.72.73l0,9.56a.73.73,0,0,0,.72.73l8.5,0,0-11Z"/><path class="cls-94" d="M169.28,142.15l-8.5,0a.72.72,0,0,0-.72.72l0,9.57a.73.73,0,0,0,.73.73l8.49,0,0-11Z"/><rect class="cls-95" x="169.26" y="142.16" width="1.16" height="11.03"/><path class="cls-96" d="M263.8,194.78s-60.37,16.54-61.91,23.37a15.6,15.6,0,0,0-1.34,3.09c-.13.92,3.11,1.1,3.5-1.4a3.58,3.58,0,0,1,1.44-3.05c12.66-8.6,58.35-18.27,58.35-18.27Z"/><path class="cls-96" d="M192.35,203.6s62.48.7,65.82,6.76a17.39,17.39,0,0,1,2.12,2.65c.4.85-2.74,1.83-3.66-.53a3.08,3.08,0,0,0-2.17-2.56c-14.44-5-61.18-2.84-61.18-2.84Z"/><path class="cls-97" d="M263.81,194.54a12.07,12.07,0,0,1-2.48-1.12,8,8,0,0,0-4.19-2.94,23.56,23.56,0,0,0-9.77-.69A31.66,31.66,0,0,0,235.18,194c-8.73,3.47-15.22,2-15.22,2a32.28,32.28,0,0,0-12.91-.82,22.93,22.93,0,0,0-9.29,3.16,8.14,8.14,0,0,0-3.27,3.9,11.36,11.36,0,0,1-2.16,1.89l.73,3.62a11.4,11.4,0,0,1,1.29.34,5.1,5.1,0,0,0,.3,1c1.15,4,3.19,7.46,5,8.6a22.56,22.56,0,0,0,12.84,2.51,15.36,15.36,0,0,0,6.4-2.16c4.22-2.49,6.39-8.23,6.75-12.23,2.64-5.23,6.48-.75,6.48-.75,1.5,3.79,4.83,8.72,9.77,10.09a17.07,17.07,0,0,0,6.68.47,22.71,22.71,0,0,0,11.91-5.67c1.47-1.54,2.55-5.28,2.62-9.45,0-.39,0-.73,0-1.11a8,8,0,0,1,1.09-.64Zm-40.63,10.61c-.44,3.47-2.09,8.49-5.67,10.48a12.35,12.35,0,0,1-5.31,1.77,19.46,19.46,0,0,1-11.31-2.16c-.94-.52-2.78-3-3.92-7.24-1.15-4-.46-6.56,2.08-8.26a18.62,18.62,0,0,1,8.31-2.71c6.48-.75,13.06.77,14.76,2C222.81,199.75,223.6,201.92,223.18,205.15ZM260.53,200c-.13,4.26-1.26,7.22-2,8.06A18.73,18.73,0,0,1,248.17,213a14.07,14.07,0,0,1-5.7-.43c-3.93-1.18-6.86-5.52-8.18-8.72s-1-5.28-.34-6.12c1.38-1.6,7.23-4.8,13.76-5.65a19.73,19.73,0,0,1,8.8.65C259.35,193.44,260.6,195.86,260.53,200Z"/><path class="cls-98" d="M258,200.46c.31-3-3.6-5.82-8.48-6.17a10.66,10.66,0,0,0-3.06.17l-1.16,2.09a12.73,12.73,0,0,1,4-.37c4.31.27,7.9,2.5,8.37,5.24A1.88,1.88,0,0,0,258,200.46Z"/><path class="cls-99" d="M207.26,197.23a20.58,20.58,0,0,0-8.31,2.71c-2.58,1.55-3.18,4.19-2.08,8.26s3,6.72,3.92,7.24a19.43,19.43,0,0,0,11.31,2.15,12.3,12.3,0,0,0,5.31-1.77c3.62-2.08,5.23-7,5.66-10.48.43-3.23-.31-5.49-1.16-6C220.27,198.09,213.74,196.47,207.26,197.23Z"/><path class="cls-99" d="M256.37,192.54a21.19,21.19,0,0,0-8.8-.65c-6.53.85-12.38,4.05-13.76,5.64-.66.75-.89,3,.34,6.13s4.2,7.63,8.18,8.72a14.26,14.26,0,0,0,5.7.43,20.06,20.06,0,0,0,10.38-4.91c.76-.7,1.9-3.66,2-8.07C260.6,195.86,259.35,193.44,256.37,192.54Z"/><path class="cls-96" d="M219.87,195.9a32.17,32.17,0,0,0-12.92-.82,23,23,0,0,0-9.29,3.16,8,8,0,0,0-3.26,3.89,11.13,11.13,0,0,1-2.17,1.9l.73,3.62a11.88,11.88,0,0,1,1.3.34,4.47,4.47,0,0,0,.29,1c1.15,4,3.19,7.45,5,8.6a22.58,22.58,0,0,0,12.85,2.51,15.41,15.41,0,0,0,6.39-2.16c4.22-2.5,6.4-8.23,6.76-12.23.9-1.86,1.94-2.4,2.86-2.51l-.79-6.87A31.37,31.37,0,0,1,219.87,195.9Zm3.31,9.25c-.44,3.47-2.09,8.49-5.67,10.48a12.35,12.35,0,0,1-5.31,1.77,19.46,19.46,0,0,1-11.31-2.16c-.94-.52-2.78-3-3.92-7.24-1.15-4-.46-6.56,2.08-8.26a18.62,18.62,0,0,1,8.31-2.71c6.48-.75,13.06.77,14.76,2C222.81,199.75,223.6,201.92,223.18,205.15Z"/></g></g></svg>